<?xml version="1.0" encoding="UTF-8" standalone="no"?>
<!DOCTYPE svg PUBLIC "-//W3C//DTD SVG 1.1//EN" "http://www.w3.org/Graphics/SVG/1.1/DTD/svg11.dtd">
<svg width="100%" height="100%" viewBox="0 0 280 62" version="1.1" xmlns="http://www.w3.org/2000/svg" xmlns:xlink="http://www.w3.org/1999/xlink" xml:space="preserve" xmlns:serif="http://www.serif.com/" style="fill-rule:evenodd;clip-rule:evenodd;stroke-linejoin:round;stroke-miterlimit:2;">
    <g id="banner_53" transform="matrix(-1,0,0,1,280.081,-8.7)">
        <g transform="matrix(0.954422,0,0,0.954422,12.7656,1.68211)">
            <path d="M264.236,9.3L279.039,9.288C279.517,9.288 279.933,9.613 280.05,10.076C280.166,10.539 279.952,11.022 279.531,11.248L276.238,16.262L279.424,20.887C279.777,21.064 280,21.424 280,21.819C280,22.213 279.777,22.574 279.424,22.751L275.772,27.608L279.424,32.466C279.777,32.642 280,33.003 280,33.398C280,33.792 279.777,34.153 279.424,34.329L275.772,39.187L279.424,44.045C279.777,44.221 280,44.582 280,44.976C280,45.371 279.777,45.732 279.424,45.908L275.692,50.806L279.424,55.704C279.777,55.88 280,56.241 280,56.636C280,57.03 279.777,57.391 279.424,57.567L275.99,62.316L279.531,67.464C279.952,67.689 280.166,68.172 280.05,68.636C279.933,69.099 279.517,69.424 279.039,69.424L264.236,69.408L264.236,9.3Z" style="fill:#858585;"/>
        </g>
        <g transform="matrix(0.659717,0,0,1.0914,91.2066,-1.75769)">
            <path d="M273.426,12.974C273.426,12.648 272.988,12.383 272.449,12.383C271.909,12.383 271.471,12.648 271.471,12.974L271.471,62.323C271.471,62.649 271.909,62.914 272.449,62.914C272.988,62.914 273.426,62.649 273.426,62.323L273.426,12.974Z" style="fill:#6e6e6e;"/>
        </g>
        <g transform="matrix(0.659717,0,0,1.0914,93.7076,-1.75769)">
            <path d="M273.426,12.974C273.426,12.648 272.988,12.383 272.449,12.383C271.909,12.383 271.471,12.648 271.471,12.974L271.471,62.323C271.471,62.649 271.909,62.914 272.449,62.914C272.988,62.914 273.426,62.649 273.426,62.323L273.426,12.974Z" style="fill:#6e6e6e;"/>
        </g>
        <g transform="matrix(0.954422,0,0,0.954422,12.7656,1.68211)">
            <path d="M264.236,9.3L268.587,9.296L268.587,69.412L264.236,69.408L264.236,9.3Z" style="fill:#6e6e6e;"/>
        </g>
        <path d="M276.734,29.05L279.454,32.668C279.791,32.837 280.004,33.181 280.004,33.558C280.004,33.934 279.791,34.278 279.454,34.447L275.969,39.083L279.454,43.719C279.791,43.888 280.004,44.232 280.004,44.609C280.004,44.985 279.791,45.329 279.454,45.498L275.892,50.173L277.311,52.035L264.958,66.697L264.958,43.027L276.734,29.05ZM276.646,10.549L279.087,10.547C279.543,10.547 279.94,10.857 280.051,11.299C280.162,11.741 279.958,12.202 279.557,12.417L276.413,17.203L277.501,18.782L264.958,33.67L264.958,24.422L276.646,10.549Z" style="fill:#fff;fill-opacity:0.15;"/>
        <path d="M140,47.751L-0,47.751L-0,65.286C-0,67.888 2.112,70 4.714,70L140,70L140,47.751Z" style="fill:#511d08;"/>
        <g transform="matrix(1,0,0,1,-7.54812,0)">
            <rect x="74.346" y="47.751" width="23.165" height="22.249" style="fill:#858585;"/>
        </g>
        <path d="M74.346,47.751L74.346,70L262.035,70C264.637,70 266.749,67.888 266.749,65.286L266.749,47.751L74.346,47.751Z" style="fill:#880311;"/>
        <path d="M37.766,8.75L140,8.75L140,63.875L3.713,63.875C1.664,63.875 -0,62.211 -0,60.162L-0,38.622C1.235,39.09 2.576,39.347 3.975,39.347C9.036,39.347 11.876,35.59 13.275,30.983C14.747,31.693 16.396,32.09 18.138,32.09C24.334,32.09 28.215,27.461 28.215,21.265L28.287,21.264C34.45,21.225 38.425,18.719 38.425,12.547C38.425,11.215 38.193,9.937 37.766,8.75Z" style="fill:#511d08;"/>
        <path d="M41.375,8.75L140,8.75L140,63.875L3.713,63.875C1.664,63.875 -0,62.211 -0,60.162L-0,41.131C1.235,41.599 2.576,41.856 3.975,41.856C9.036,41.856 13.319,38.5 14.719,33.893C16.191,34.603 17.84,35 19.582,35C25.778,35 30.808,29.97 30.808,23.774L30.881,23.773C37.044,23.734 42.035,18.719 42.035,12.547C42.035,11.215 41.802,9.937 41.375,8.75Z" style="fill:#511d08;"/>
        <g transform="matrix(1,0,0,1,-18.505,3.23902)">
            <g transform="matrix(1,0,0,1.22103,4.28262,-17.3577)">
                <rect x="14.222" y="48.827" width="34.127" height="15.049" style="fill:#511d08;"/>
            </g>
            <g transform="matrix(0.848895,0,0,0.954935,9.01006,-2.36269)">
                <rect x="14.222" y="48.827" width="34.127" height="15.049" style="fill:#763c29;"/>
            </g>
            <g transform="matrix(0.744322,0,0,0.744535,12.2817,9.4936)">
                <rect x="14.222" y="48.827" width="34.127" height="15.049" style="fill:#511d08;"/>
            </g>
            <g transform="matrix(0.655501,0,0,0.528193,15.1167,21.5164)">
                <rect x="14.222" y="48.827" width="34.127" height="15.049" style="fill:#763c29;"/>
            </g>
        </g>
        <g transform="matrix(1,0,0,1,-18.505,-15.1363)">
            <g transform="matrix(1,0,0,1,18.505,15.1363)">
                <path d="M30.299,27.125L34.127,27.125L34.127,45.501L0,45.501L0,41.131C1.235,41.599 2.576,41.856 3.975,41.856C9.036,41.856 13.319,38.5 14.719,33.893C16.191,34.603 17.84,35 19.582,35C24.611,35 28.871,31.687 30.299,27.125Z" style="fill:#511d08;"/>
            </g>
            <g transform="matrix(1,0,0,1,18.505,15.1363)">
                <path d="M29.45,29.128L31.549,29.128L31.549,43.498L2.578,43.498L2.578,41.77C3.036,41.827 3.502,41.856 3.975,41.856C9.036,41.856 13.319,38.5 14.719,33.893C16.191,34.603 17.84,35 19.582,35C23.84,35 27.547,32.624 29.45,29.128Z" style="fill:#763c29;"/>
            </g>
            <g transform="matrix(1,0,0,1,18.505,15.1363)">
                <path d="M28.406,30.711L29.764,30.711L29.764,41.915L4.363,41.915L4.363,41.849C9.254,41.683 13.355,38.382 14.719,33.893C16.191,34.603 17.84,35 19.582,35C23.16,35 26.35,33.322 28.406,30.711Z" style="fill:#511d08;"/>
            </g>
            <g transform="matrix(1,0,0,1,18.505,15.1363)">
                <path d="M27.031,32.17L28.305,32.17L28.305,40.119L9.973,40.119C12.221,38.694 13.929,36.493 14.719,33.893C16.191,34.603 17.84,35 19.582,35C22.439,35 25.048,33.93 27.031,32.17Z" style="fill:#763c29;"/>
            </g>
        </g>
        <g transform="matrix(1,0,0,1,15.6222,3.23902)">
            <g transform="matrix(1,0,0,1.22103,4.28262,-17.3577)">
                <rect x="14.222" y="48.827" width="34.127" height="15.049" style="fill:#511d08;"/>
            </g>
            <g transform="matrix(0.848895,0,0,0.954935,9.01006,-2.36269)">
                <rect x="14.222" y="48.827" width="34.127" height="15.049" style="fill:#763c29;"/>
            </g>
            <g transform="matrix(0.744322,0,0,0.744535,12.2817,9.4936)">
                <rect x="14.222" y="48.827" width="34.127" height="15.049" style="fill:#511d08;"/>
            </g>
            <g transform="matrix(0.655501,0,0,0.528193,15.1167,21.5164)">
                <rect x="14.222" y="48.827" width="34.127" height="15.049" style="fill:#763c29;"/>
            </g>
        </g>
        <g transform="matrix(1,0,0,1,15.6222,-15.1363)">
            <g transform="matrix(1,0,0,1.22103,4.28262,-17.3577)">
                <rect x="14.222" y="48.827" width="34.127" height="15.049" style="fill:#511d08;"/>
            </g>
            <g transform="matrix(0.848895,0,0,0.954935,9.01006,-2.36269)">
                <rect x="14.222" y="48.827" width="34.127" height="15.049" style="fill:#763c29;"/>
            </g>
            <g transform="matrix(0.744322,0,0,0.744535,12.2817,9.4936)">
                <rect x="14.222" y="48.827" width="34.127" height="15.049" style="fill:#511d08;"/>
            </g>
            <g transform="matrix(0.655501,0,0,0.528193,15.1167,21.5164)">
                <rect x="14.222" y="48.827" width="34.127" height="15.049" style="fill:#763c29;"/>
            </g>
        </g>
        <g transform="matrix(1,0,0,1,15.6222,-33.5115)">
            <g transform="matrix(1,0,0,1,-15.6222,33.5115)">
                <path d="M41.375,8.75L68.254,8.75L68.254,27.125L34.127,27.125L34.127,23.274C38.705,21.858 42.035,17.588 42.035,12.547C42.035,11.215 41.802,9.937 41.375,8.75Z" style="fill:#511d08;"/>
            </g>
            <g transform="matrix(1,0,0,1,-15.6222,33.5115)">
                <path d="M41.892,10.752L65.676,10.752L65.676,25.123L36.706,25.123L36.706,22.1C39.903,20.12 42.035,16.58 42.035,12.547C42.035,11.936 41.986,11.337 41.892,10.752Z" style="fill:#763c29;"/>
            </g>
            <g transform="matrix(1,0,0,1,-15.6222,33.5115)">
                <path d="M42.033,12.335L63.892,12.335L63.892,23.54L38.49,23.54L38.49,20.731C40.672,18.682 42.035,15.773 42.035,12.547C42.035,12.476 42.034,12.406 42.033,12.335Z" style="fill:#511d08;"/>
            </g>
            <g transform="matrix(1,0,0,1,-15.6222,33.5115)">
                <path d="M41.966,13.795L62.432,13.795L62.432,21.744L40.062,21.744L40.062,18.902C41.084,17.418 41.758,15.676 41.966,13.795Z" style="fill:#763c29;"/>
            </g>
        </g>
        <g transform="matrix(1,0,0,1,49.7493,3.23902)">
            <g transform="matrix(1,0,0,1.22103,4.28262,-17.3577)">
                <rect x="14.222" y="48.827" width="34.127" height="15.049" style="fill:#511d08;"/>
            </g>
            <g transform="matrix(0.848895,0,0,0.954935,9.01006,-2.36269)">
                <rect x="14.222" y="48.827" width="34.127" height="15.049" style="fill:#763c29;"/>
            </g>
            <g transform="matrix(0.744322,0,0,0.744535,12.2817,9.4936)">
                <rect x="14.222" y="48.827" width="34.127" height="15.049" style="fill:#511d08;"/>
            </g>
            <g transform="matrix(0.655501,0,0,0.528193,15.1167,21.5164)">
                <rect x="14.222" y="48.827" width="34.127" height="15.049" style="fill:#763c29;"/>
            </g>
        </g>
        <g transform="matrix(1,0,0,1,49.7493,-15.1363)">
            <g transform="matrix(1,0,0,1.22103,4.28262,-17.3577)">
                <rect x="14.222" y="48.827" width="34.127" height="15.049" style="fill:#511d08;"/>
            </g>
            <g transform="matrix(0.848895,0,0,0.954935,9.01006,-2.36269)">
                <rect x="14.222" y="48.827" width="34.127" height="15.049" style="fill:#763c29;"/>
            </g>
            <g transform="matrix(0.744322,0,0,0.744535,12.2817,9.4936)">
                <rect x="14.222" y="48.827" width="34.127" height="15.049" style="fill:#511d08;"/>
            </g>
            <g transform="matrix(0.655501,0,0,0.528193,15.1167,21.5164)">
                <rect x="14.222" y="48.827" width="34.127" height="15.049" style="fill:#763c29;"/>
            </g>
        </g>
        <g transform="matrix(1,0,0,1,49.7493,-33.5115)">
            <g transform="matrix(1,0,0,1.22103,4.28262,-17.3577)">
                <rect x="14.222" y="48.827" width="34.127" height="15.049" style="fill:#511d08;"/>
            </g>
            <g transform="matrix(0.848895,0,0,0.954935,9.01006,-2.36269)">
                <rect x="14.222" y="48.827" width="34.127" height="15.049" style="fill:#763c29;"/>
            </g>
            <g transform="matrix(0.744322,0,0,0.744535,12.2817,9.4936)">
                <rect x="14.222" y="48.827" width="34.127" height="15.049" style="fill:#511d08;"/>
            </g>
            <g transform="matrix(0.655501,0,0,0.528193,15.1167,21.5164)">
                <rect x="14.222" y="48.827" width="34.127" height="15.049" style="fill:#763c29;"/>
            </g>
        </g>
        <g transform="matrix(1,0,0,1,-11.5826,0)">
            <path d="M84.883,8.75L88.519,19.13L81.216,39.915L85.128,43.899L74.346,52.101L74.346,63.875L97.511,63.875L97.18,8.75L84.883,8.75Z" style="fill:#511d08;fill-opacity:0.5;"/>
        </g>
        <g transform="matrix(1,0,0,1,-7.54812,0)">
            <path d="M84.883,8.75L88.519,19.13L81.216,39.915L85.128,43.899L74.346,52.101L74.346,63.875L97.511,63.875L97.18,8.75L84.883,8.75Z" style="fill:#a1a4a6;"/>
        </g>
        <path d="M71.312,61.73C71.265,61.375 71.431,53.948 71.431,53.948L72.708,58.726C72.708,58.726 71.36,62.085 71.312,61.73ZM73.827,55.661L72.708,53.948L80.261,47.453L81.065,49.369L79.812,48.73L73.827,55.661ZM81.065,38.193L87.988,18.9L82.074,38.6L81.065,38.193ZM80.055,9.557L83.102,13.834L83.291,9.936L80.055,9.557Z" style="fill:#8c8c8c;"/>
        <path d="M68.263,62.194L68.413,52.708L80.709,43.273L75.59,39.243L82.566,18.832L79.254,9.397L83.215,15.129L86.23,9.548L87.083,18.381L78.903,38.807L83.921,42.32L81.562,47.64L80.458,46.535L70.822,53.11L68.263,62.194Z" style="fill:#c1c1c1;"/>
        <path d="M87.873,8.75L89.095,18.749L82.606,39.243L85.875,41.408L83.56,47.751L74.346,56.681L74.346,63.875L263.036,63.875C265.086,63.875 266.749,62.211 266.749,60.162L266.749,12.463C266.749,10.414 265.086,8.75 263.036,8.75L87.873,8.75Z" style="fill:#c30014;"/>
        <path d="M231.979,8.75L215.686,8.75L190.902,63.876L207.195,63.876L231.979,8.75ZM246.827,8.75L238.01,8.75L213.226,63.876L222.044,63.876L246.827,8.75Z" style="fill:#ffe675;"/>
        <path d="M207.196,63.875L190.903,63.875L188.149,70L204.442,70L207.196,63.875ZM222.044,63.875L213.226,63.875L210.473,70L219.29,70L222.044,63.875Z" style="fill:#ccab14;"/>
        <g transform="matrix(2.27128,0,-0.627853,1.29261,-105.85,-12.5663)">
            <rect x="124.457" y="16.491" width="26.135" height="47.385" style="fill:#fff;fill-opacity:0.1;"/>
        </g>
        <g transform="matrix(-0.715318,0,-0.627853,1.29261,252.464,-12.5663)">
            <rect x="124.457" y="16.491" width="26.135" height="47.385" style="fill:#fff;fill-opacity:0.1;"/>
        </g>
        <path d="M245.976,61.024L259.902,61.024C262.518,61.076 263.863,59.895 263.996,57.538L263.996,14.259C264.039,11.866 263.088,10.628 260.905,10.666L254.388,10.666L259.401,13.423C260.258,13.829 260.648,14.497 260.571,15.428L260.571,54.447C260.44,56.325 259.55,57.548 257.813,58.039L245.976,61.024Z" style="fill:#fff;fill-opacity:0.15;"/>
        <path d="M84.717,60.247L84.557,55.595L91.722,48.537L90.706,54.739C90.425,56.566 92.056,56.584 95.037,56.771L199.143,60.358L84.717,60.247Z" style="fill:#fff;fill-opacity:0.15;"/>
        <path d="M99.562,10.665L177.368,10.665C172.381,11.446 168.659,13.326 162.394,13.37L108.376,13.37C104.325,13.342 101.463,11.308 99.562,10.665Z" style="fill:#fff;fill-opacity:0.15;"/>
        <path d="M93.173,8.75L87.873,8.75L89.095,18.749L82.606,39.243L85.875,41.408L83.56,47.751L74.346,56.681L74.346,63.875L263.036,63.875L79.646,63.875L79.646,56.681L88.86,47.751L91.175,41.408L87.906,39.243L94.395,18.749L93.173,8.75Z" style="fill:#880311;"/>
        <g transform="matrix(0.992762,-0.120097,0.120097,0.992762,-5.63703,4.98239)">
            <path d="M6.774,31.691C6.361,30.797 5.782,29.691 5.748,28.663C5.722,27.859 6.218,27.162 6.617,26.507C6.944,25.971 7.239,25.023 7.759,24.614C8.069,24.371 8.647,24.416 9.013,24.412C10.053,24.403 11.166,24.442 11.95,25.212C13.87,27.1 12.584,30.667 10.335,31.778C9.586,32.148 7.054,32.297 6.774,31.691ZM20.43,24.018C20.105,22.647 20.375,22.124 21.46,21.079C21.772,20.779 22.188,20.232 22.701,20.329C23.438,20.469 23.903,21.575 24.097,22.217C24.339,23.021 24.697,24.265 24.119,25.002C23.383,25.942 20.944,26.182 20.43,24.018Z" style="fill:#763c29;"/>
        </g>
        <g transform="matrix(0.992762,-0.120097,0.120097,0.992762,-5.63703,4.98239)">
            <path d="M6.395,31.865C6.461,32.007 6.58,32.138 6.759,32.239C6.931,32.337 7.173,32.413 7.459,32.458C8.426,32.612 9.948,32.434 10.519,32.152C11.743,31.547 12.712,30.28 13.107,28.901C13.511,27.487 13.314,25.969 12.242,24.915C11.377,24.064 10.158,23.985 9.009,23.996C8.773,23.998 8.456,23.984 8.168,24.027C7.912,24.065 7.678,24.148 7.502,24.286C7.254,24.481 7.043,24.773 6.862,25.101C6.636,25.508 6.455,25.973 6.262,26.29C5.821,27.011 5.303,27.791 5.332,28.676C5.367,29.758 5.961,30.925 6.395,31.865ZM7.142,31.495C6.751,30.651 6.196,29.617 6.165,28.649C6.141,27.928 6.614,27.312 6.973,26.724C7.141,26.448 7.302,26.067 7.487,25.701C7.638,25.404 7.799,25.113 8.017,24.941C8.113,24.865 8.257,24.851 8.4,24.838C8.618,24.82 8.843,24.831 9.017,24.829C9.949,24.821 10.956,24.819 11.658,25.509C12.506,26.343 12.626,27.553 12.305,28.672C11.975,29.827 11.176,30.898 10.15,31.405C9.673,31.641 8.398,31.764 7.59,31.635C7.467,31.616 7.357,31.591 7.264,31.556C7.219,31.54 7.16,31.506 7.142,31.495ZM20.025,24.115C20.453,25.919 22.005,26.322 23.198,26.017C23.724,25.882 24.177,25.605 24.447,25.259C24.735,24.892 24.849,24.427 24.847,23.934C24.845,23.298 24.651,22.612 24.496,22.097C24.368,21.674 24.129,21.068 23.787,20.617C23.512,20.255 23.169,19.994 22.779,19.92C22.466,19.861 22.174,19.945 21.909,20.113C21.625,20.293 21.375,20.582 21.171,20.779C20.439,21.485 20.057,21.993 19.931,22.609C19.847,23.023 19.877,23.492 20.025,24.115L20.025,24.115ZM20.836,23.922C20.723,23.448 20.683,23.091 20.748,22.776C20.846,22.297 21.18,21.928 21.749,21.379C21.896,21.238 22.067,21.036 22.262,20.883C22.372,20.797 22.487,20.713 22.624,20.739C22.824,20.776 22.982,20.935 23.123,21.121C23.404,21.491 23.593,21.99 23.698,22.338C23.812,22.717 23.956,23.199 24,23.674C24.038,24.067 24.017,24.458 23.791,24.745C23.62,24.964 23.325,25.124 22.992,25.209C22.181,25.417 21.127,25.147 20.836,23.922L20.836,23.922Z" style="fill:#511d08;"/>
        </g>
        <path d="M37.72,59.327L37.72,48.312C37.72,48.312 62.07,48.312 62.07,48.312C62.185,48.312 62.279,48.219 62.279,48.104C62.279,47.989 62.185,47.896 62.07,47.896L37.512,47.896C37.397,47.896 37.304,47.989 37.304,48.104L37.304,59.327C37.304,59.442 37.397,59.535 37.512,59.535C37.627,59.535 37.72,59.442 37.72,59.327ZM3.524,59.327L3.524,48.312C3.524,48.312 27.874,48.312 27.874,48.312C27.989,48.312 28.082,48.219 28.082,48.104C28.082,47.989 27.989,47.896 27.874,47.896L3.316,47.896C3.201,47.896 3.107,47.989 3.107,48.104L3.107,59.327C3.107,59.442 3.201,59.535 3.316,59.535C3.431,59.535 3.524,59.442 3.524,59.327ZM40.936,51.079C40.822,51.079 40.729,51.172 40.728,51.286L40.699,57.682C40.698,57.748 40.73,57.811 40.783,57.85C40.837,57.89 40.906,57.901 40.969,57.881L61.353,51.486C61.451,51.455 61.512,51.357 61.497,51.256C61.481,51.154 61.394,51.079 61.291,51.079L40.936,51.079ZM6.74,51.079C6.625,51.079 6.532,51.172 6.532,51.286L6.502,57.682C6.502,57.748 6.534,57.811 6.587,57.85C6.641,57.89 6.71,57.901 6.773,57.881L27.157,51.486C27.255,51.455 27.316,51.357 27.3,51.256C27.285,51.154 27.197,51.079 27.094,51.079L6.74,51.079ZM37.72,41.048L37.72,30.033C37.72,30.033 62.07,30.033 62.07,30.033C62.185,30.033 62.279,29.94 62.279,29.825C62.279,29.71 62.185,29.616 62.07,29.616L37.512,29.616C37.397,29.616 37.304,29.71 37.304,29.825L37.304,41.048C37.304,41.163 37.397,41.256 37.512,41.256C37.627,41.256 37.72,41.163 37.72,41.048ZM40.936,32.8C40.822,32.8 40.729,32.892 40.728,33.007L40.699,39.402C40.698,39.469 40.73,39.531 40.783,39.571C40.837,39.61 40.906,39.622 40.969,39.602L61.353,33.207C61.451,33.176 61.512,33.078 61.497,32.976C61.481,32.875 61.394,32.8 61.291,32.8L40.936,32.8ZM26.255,32.8L27.094,32.8C27.197,32.8 27.285,32.875 27.3,32.976C27.316,33.078 27.255,33.176 27.157,33.207L12.644,37.76C13.572,36.634 14.284,35.324 14.719,33.893C16.191,34.603 17.84,35 19.582,35C22.08,35 24.389,34.182 26.255,32.8ZM37.72,21.391L37.72,22.548C37.72,22.663 37.627,22.756 37.512,22.756C37.397,22.756 37.304,22.663 37.304,22.548L37.304,21.702C37.445,21.602 37.584,21.498 37.72,21.391ZM41.898,14.3L61.291,14.3C61.394,14.3 61.481,14.375 61.497,14.476C61.512,14.578 61.451,14.676 61.353,14.707L40.969,21.102C40.906,21.122 40.837,21.111 40.783,21.071C40.73,21.032 40.698,20.969 40.699,20.902L40.713,17.833C41.293,16.749 41.701,15.559 41.898,14.3ZM41.944,11.116L62.07,11.116C62.185,11.116 62.279,11.21 62.279,11.325C62.279,11.44 62.185,11.533 62.07,11.533L41.989,11.533C41.977,11.393 41.962,11.255 41.944,11.116Z" style="fill:#9c5741;fill-opacity:0.5;"/>
    </g>
</svg>
