<?xml version="1.0" encoding="UTF-8" standalone="no"?>
<!DOCTYPE svg PUBLIC "-//W3C//DTD SVG 1.1//EN" "http://www.w3.org/Graphics/SVG/1.1/DTD/svg11.dtd">
<svg width="100%" height="100%" viewBox="0 0 280 62" version="1.1" xmlns="http://www.w3.org/2000/svg" xmlns:xlink="http://www.w3.org/1999/xlink" xml:space="preserve" xmlns:serif="http://www.serif.com/" style="fill-rule:evenodd;clip-rule:evenodd;stroke-linejoin:round;stroke-miterlimit:2;">
    <g id="banner_52" transform="matrix(1,0,0,1,0.0207231,-8.75)">
        <path d="M13.053,70C9.552,69.985 5.199,68.039 3.272,65.885C-0.774,61.363 -1.003,54.7 2.101,49.091C3.811,46 6.606,43.429 9.249,40.972C12.232,38.2 15.12,35.234 17.155,31.817C18.037,30.337 18.965,28.471 18.829,26.74C18.797,26.327 19.155,26.962 19.257,27.09C19.654,27.593 19.97,28.136 20.236,28.703C20.978,30.28 21.43,31.867 21.159,33.581C20.961,34.831 20.491,36.018 19.815,37.124C19.597,37.479 19.362,37.822 19.098,38.151C19.002,38.271 18.901,38.388 18.795,38.501C18.749,38.549 18.594,38.676 18.655,38.643C21.034,37.349 23.304,35.016 23.759,32.505C24.387,29.033 22.991,25.839 25.818,22.879C28.318,20.262 32.115,20.049 35.611,19.462C38.469,18.983 41.31,18.146 43.83,16.827C46.069,15.656 47.807,13.957 49.501,12.225C50.032,11.682 50.55,11.126 51.002,10.527C51.149,10.333 51.283,10.133 51.397,9.921C51.452,9.817 51.448,9.538 51.551,9.606C52.464,10.196 53.04,11.354 53.347,12.29C53.913,14.016 54.046,15.865 53.235,17.553C52.043,20.034 49.384,22.435 49.672,25.32C49.884,27.443 51.665,28.94 52.775,30.709C54.385,33.275 55.147,36.143 54.603,39.089L54.655,39.042C55.743,38.054 56.654,36.924 57.839,36.022C59.695,34.609 61.736,33.533 63.344,31.839C64.155,30.985 64.84,30.04 65.263,28.979C65.403,28.628 65.518,28.269 65.605,27.905C65.65,27.716 65.494,27.282 65.702,27.331C66.798,27.59 67.513,28.486 68.022,29.339C69.1,31.149 69.526,33.314 69.189,35.335L69.199,35.297C70.028,31.997 68.987,28.389 70.538,25.214C73.677,18.788 82.149,17.776 89.023,17.1C90.594,16.945 92.163,16.776 93.737,16.649C95.418,16.513 97.103,16.355 98.764,16.081C101.713,15.595 104.352,14.596 106.728,12.961C107.499,12.43 108.259,11.874 108.941,11.25C109.167,11.044 109.393,10.828 109.578,10.59C109.669,10.472 109.731,10.089 109.813,10.213C110.866,11.81 110.261,14.68 109.3,16.217C108.94,16.792 108.491,17.315 108.078,17.858C107.944,18.035 107.813,18.214 107.672,18.386C107.596,18.48 107.31,18.655 107.439,18.663C107.986,18.698 108.732,18.383 109.252,18.23C111.03,17.709 112.776,16.929 114.401,16.105C115.008,15.798 115.64,15.489 116.185,15.093C116.37,14.959 116.55,14.815 116.709,14.656C116.79,14.575 116.899,14.298 116.935,14.402C117.373,15.64 117.148,17.049 116.947,18.307C116.818,19.114 116.603,19.898 116.34,20.678L116.341,20.678C117.213,19.072 118.464,17.438 119.939,16.214C121.661,14.786 123.815,13.847 125.708,12.627C126.824,11.908 127.912,11.129 128.878,10.25C129.209,9.95 129.514,9.627 129.792,9.287C129.883,9.176 129.971,9.064 130.048,8.944C130.086,8.884 130.114,8.704 130.157,8.761C132.071,11.31 134.179,13.636 136.983,15.489C138.587,16.549 140.44,17.253 142.014,18.36C144.584,20.167 145.969,22.478 145.941,25.351L145.94,25.419L146.005,25.359C147.377,24.091 148.795,22.903 150.262,21.723C150.712,21.362 151.16,20.978 151.519,20.539C151.643,20.388 151.75,20.226 151.841,20.057C151.878,19.987 151.867,19.806 151.945,19.842C152.942,20.309 153.583,21.278 154.015,22.175C155.07,24.362 154.987,26.425 154.633,28.716L154.664,28.64C154.981,27.86 155.343,27.057 155.897,26.387C158.848,22.816 163.868,22.75 167.983,20.894C169.895,20.032 171.752,18.913 172.804,17.192C173.171,16.591 173.455,15.947 173.561,15.265C173.598,15.033 173.61,14.797 173.613,14.563C173.614,14.453 173.484,14.226 173.606,14.233C174.048,14.26 174.597,14.665 174.939,14.892C176.16,15.705 176.996,16.953 177.831,18.07C179.726,20.605 181.626,23.516 181.908,26.626C182.05,28.2 181.843,29.512 181.652,31.051L181.661,31.05C183.783,30.059 185.877,28.82 187.869,27.621C188.323,27.347 188.785,27.08 189.22,26.782C189.254,26.759 189.603,26.485 189.619,26.493C191.142,27.317 191.397,29.058 192.213,30.342C192.631,31.001 193.147,31.585 193.736,32.075C195.892,33.866 198.927,34.168 201.727,32.787C204.548,31.321 206.015,28.701 207.883,26.325C210.193,23.388 213.15,20.489 216.621,18.64C218.999,17.373 221.543,16.345 224.18,15.601C225.082,15.347 226.003,15.103 226.941,14.975C227.244,14.933 227.551,14.914 227.857,14.89C228.019,14.878 228.435,14.737 228.344,14.858C228.145,15.12 227.598,15.357 227.312,15.535C226.712,15.909 226.159,16.328 225.652,16.801C223.448,18.857 222.634,21.826 224.092,24.403C225.354,26.633 226.891,28.739 228.082,31.002C228.795,32.356 229.622,33.676 229.667,35.2L229.686,35.162C231.325,31.926 234.903,30.133 236.712,27.001C237.313,25.962 237.695,24.714 237.702,23.536C237.705,23.059 237.647,22.581 237.582,22.108C237.579,22.091 237.496,21.66 237.502,21.658C238.194,21.423 239.258,21.832 239.843,22.143C241.605,23.077 242.962,24.419 244.249,25.826C248.997,31.014 251.837,38.472 250.596,45.259L250.599,45.262L250.607,45.269C252.762,43.768 254.929,41.865 256.48,39.832C256.834,39.369 257.147,38.883 257.414,38.375C257.503,38.205 257.59,38.034 257.667,37.86C257.67,37.851 257.776,37.574 257.779,37.575C258.02,37.614 258.285,37.779 258.489,37.893C261.2,39.418 262.937,42.991 263.531,45.707C263.737,46.652 263.83,47.615 263.824,48.577C263.822,48.899 263.807,49.222 263.78,49.543C263.766,49.708 263.6,50.157 263.727,50.038C265.442,48.437 266.272,46.104 266.506,43.934C266.558,43.445 266.542,42.963 266.485,42.481C266.383,41.923 266.53,42.385 266.555,42.469C266.766,43.179 267.009,43.873 267.456,44.501C270.061,48.164 275.577,49.253 278.256,52.843C279.279,54.214 279.922,55.986 279.987,57.641C280.042,59.019 279.927,60.436 279.527,61.77C277.719,67.808 270.847,69.663 264.543,70L13.095,70L13.053,70ZM260.902,33.461C260.374,32.922 259.9,32.304 259.568,31.622C259.306,31.083 259.138,30.5 259.048,29.909C258.925,29.104 258.865,28.24 259.078,27.444C259.695,25.132 261.836,23.608 262.988,21.594C263.606,20.514 263.701,19.324 263.671,18.102C263.662,17.726 263.609,17.349 263.527,16.982C263.499,16.856 263.467,16.73 263.434,16.605C263.419,16.55 263.334,16.423 263.388,16.44C263.871,16.59 264.238,16.979 264.554,17.354C265.212,18.134 265.699,19.036 266.039,19.996C266.684,21.818 267.216,24.26 266.254,26.069C265.595,27.309 264.288,27.752 263.353,28.706C262.067,30.021 260.981,31.67 260.902,33.461ZM10.993,32.055C11.024,31.109 11.158,29.316 10.85,28.414C10.036,26.026 8.132,24.223 7.199,21.889C6.602,20.395 6.43,18.764 7.155,17.283C7.422,16.739 7.791,16.26 8.207,15.822C8.291,15.733 8.378,15.646 8.464,15.559C8.516,15.507 8.588,15.337 8.62,15.403C9.287,16.77 9.599,18.113 10.52,19.369C12.392,21.923 16.836,24.644 14.873,28.406C14.547,29.03 14.014,29.56 13.521,30.056C12.919,30.66 12.029,31.264 10.993,32.055ZM181.63,31.054L181.638,31.053L181.624,31.052L181.63,31.054ZM197.608,28.513C197.316,26.079 195.52,23.813 196.204,21.295C196.765,19.233 199.398,18.341 200.633,16.713C201.306,15.825 201.689,14.854 201.808,13.746C201.847,13.387 201.86,13.024 201.847,12.663C201.841,12.492 201.637,12.154 201.808,12.152C202.499,12.14 203.159,12.767 203.539,13.275C203.782,13.601 203.989,13.956 204.164,14.323C204.464,14.953 204.687,15.635 204.849,16.313C205.681,19.785 204.888,24.621 202.259,27.172C201.348,28.055 200.312,28.79 199.054,29.101C198.715,29.185 197.665,28.988 197.608,28.513ZM56.69,28.269C56.239,27.616 55.905,26.91 55.684,26.148C55.516,25.566 55.391,24.954 55.363,24.347C55.225,21.319 57.397,19.904 58.788,17.54C59.306,16.661 59.698,15.655 59.714,14.624C59.719,14.26 59.696,13.894 59.615,13.538C59.575,13.36 59.294,12.927 59.454,13.015C63.127,15.032 64.461,21.428 61.988,24.815C60.621,26.688 58.498,27.066 56.69,28.269ZM158.847,20.154C157.793,18.383 158.99,16.738 159.566,15.037C159.932,13.955 160.03,12.811 160.021,11.675C160.019,11.336 159.989,11.008 159.918,10.676C159.894,10.564 159.866,10.452 159.835,10.342C159.828,10.319 159.784,10.175 159.786,10.174C160.06,10.054 160.496,10.284 160.723,10.411C161.472,10.831 162.041,11.518 162.531,12.21C163.867,14.096 164.305,16.382 163.213,18.501C162.485,19.916 159.607,21.433 158.847,20.154Z" style="fill:#ff6f3a;"/>
        <path d="M264.543,70L13.337,70L13.053,70C9.552,69.985 5.199,68.039 3.272,65.885C-0.774,61.363 -1.003,54.7 2.101,49.091C3.811,46 6.606,43.429 9.249,40.972C12.232,38.2 15.12,35.234 17.155,31.817C18.037,30.337 18.965,28.471 18.829,26.74C18.797,26.327 19.155,26.962 19.257,27.09C19.654,27.593 19.97,28.136 20.236,28.703C20.978,30.28 21.43,31.867 21.159,33.581C20.961,34.831 20.491,36.018 19.815,37.124C19.597,37.479 19.362,37.822 19.098,38.151C19.002,38.271 18.901,38.388 18.795,38.501C18.749,38.549 18.594,38.676 18.655,38.643C21.034,37.349 23.304,35.016 23.759,32.505C24.387,29.033 22.991,25.839 25.818,22.879C28.318,20.262 32.115,20.049 35.611,19.462C38.469,18.983 41.31,18.146 43.83,16.827C46.069,15.656 47.807,13.957 49.501,12.225C50.032,11.682 50.55,11.126 51.002,10.527C51.149,10.333 51.283,10.133 51.397,9.921C51.452,9.817 51.448,9.538 51.551,9.606C52.464,10.196 53.04,11.354 53.347,12.29C53.913,14.016 54.046,15.865 53.235,17.553C52.043,20.034 49.384,22.435 49.672,25.32C49.884,27.443 51.665,28.94 52.775,30.709C54.385,33.275 55.147,36.143 54.603,39.089L54.655,39.042C55.743,38.054 56.654,36.924 57.839,36.022C59.695,34.609 61.736,33.533 63.344,31.839C64.155,30.985 64.84,30.04 65.263,28.979C65.403,28.628 65.518,28.269 65.605,27.905C65.65,27.716 65.494,27.282 65.702,27.331C66.798,27.59 67.513,28.486 68.022,29.339C69.1,31.149 69.526,33.314 69.189,35.335L69.199,35.297C70.028,31.997 68.987,28.389 70.538,25.214C73.677,18.788 82.149,17.776 89.023,17.1C90.594,16.945 92.163,16.776 93.737,16.649C95.418,16.513 97.103,16.355 98.764,16.081C101.713,15.595 104.352,14.596 106.728,12.961C107.499,12.43 108.259,11.874 108.941,11.25C109.167,11.044 109.393,10.828 109.578,10.59C109.669,10.472 109.731,10.089 109.813,10.213C110.866,11.81 110.261,14.68 109.3,16.217C108.94,16.792 108.491,17.315 108.078,17.858C107.944,18.035 107.813,18.214 107.672,18.386C107.596,18.48 107.31,18.655 107.439,18.663C107.986,18.698 108.732,18.383 109.252,18.23C111.03,17.709 112.776,16.929 114.401,16.105C115.008,15.798 115.64,15.489 116.185,15.093C116.37,14.959 116.55,14.815 116.709,14.656C116.79,14.575 116.899,14.298 116.935,14.402C117.373,15.64 117.148,17.049 116.947,18.307C116.818,19.114 116.603,19.898 116.34,20.678L116.341,20.678C117.213,19.072 118.464,17.438 119.939,16.214C121.661,14.786 123.815,13.847 125.708,12.627C126.824,11.908 127.912,11.129 128.878,10.25C129.209,9.95 129.514,9.627 129.792,9.287C129.883,9.176 129.971,9.064 130.048,8.944C130.086,8.884 130.114,8.704 130.157,8.761C132.071,11.31 134.179,13.636 136.983,15.489C138.587,16.549 140.44,17.253 142.014,18.36C144.584,20.167 145.969,22.478 145.941,25.351L145.94,25.419L146.005,25.359C147.377,24.091 148.795,22.903 150.262,21.723C150.712,21.362 151.16,20.978 151.519,20.539C151.643,20.388 151.75,20.226 151.841,20.057C151.878,19.987 151.867,19.806 151.945,19.842C152.942,20.309 153.583,21.278 154.015,22.175C155.07,24.362 154.987,26.425 154.633,28.716L154.664,28.64C154.981,27.86 155.343,27.057 155.897,26.387C158.848,22.816 163.868,22.75 167.983,20.894C169.895,20.032 171.752,18.913 172.804,17.192C173.171,16.591 173.455,15.947 173.561,15.265C173.598,15.033 173.61,14.797 173.613,14.563C173.614,14.453 173.484,14.226 173.606,14.233C174.048,14.26 174.597,14.665 174.939,14.892C176.16,15.705 176.996,16.953 177.831,18.07C179.726,20.605 181.626,23.516 181.908,26.626C182.05,28.2 181.843,29.512 181.652,31.051L181.661,31.05C183.783,30.059 185.877,28.82 187.869,27.621C188.323,27.347 188.785,27.08 189.22,26.782C189.254,26.759 189.603,26.485 189.619,26.493C191.142,27.317 191.397,29.058 192.213,30.342C192.631,31.001 193.147,31.585 193.736,32.075C195.892,33.866 198.927,34.168 201.727,32.787C204.548,31.321 206.015,28.701 207.883,26.325C210.193,23.388 213.15,20.489 216.621,18.64C218.999,17.373 221.543,16.345 224.18,15.601C225.082,15.347 226.003,15.103 226.941,14.975C227.244,14.933 227.551,14.914 227.857,14.89C228.019,14.878 228.435,14.737 228.344,14.858C228.145,15.12 227.598,15.357 227.312,15.535C226.712,15.909 226.159,16.328 225.652,16.801C223.448,18.857 222.634,21.826 224.092,24.403C225.354,26.633 226.891,28.739 228.082,31.002C228.795,32.356 229.622,33.676 229.667,35.2L229.686,35.162C231.325,31.926 234.903,30.133 236.712,27.001C237.313,25.962 237.695,24.714 237.702,23.536C237.705,23.059 237.647,22.581 237.582,22.108C237.579,22.091 237.496,21.66 237.502,21.658C238.194,21.423 239.258,21.832 239.843,22.143C241.605,23.077 242.962,24.419 244.249,25.826C248.997,31.014 251.837,38.472 250.596,45.259L250.599,45.262L250.607,45.269C252.762,43.768 254.929,41.865 256.48,39.832C256.834,39.369 257.147,38.883 257.414,38.375C257.503,38.205 257.59,38.034 257.667,37.86C257.67,37.851 257.776,37.574 257.779,37.575C258.02,37.614 258.285,37.779 258.489,37.893C261.2,39.418 262.937,42.991 263.531,45.707C263.737,46.652 263.83,47.615 263.824,48.577C263.822,48.899 263.807,49.222 263.78,49.543C263.766,49.708 263.6,50.157 263.727,50.038C265.442,48.437 266.272,46.104 266.506,43.934C266.558,43.445 266.542,42.963 266.485,42.481C266.383,41.923 266.53,42.385 266.555,42.469C266.766,43.179 267.009,43.873 267.456,44.501C270.061,48.164 275.577,49.253 278.256,52.843C279.279,54.214 279.922,55.986 279.987,57.641C280.042,59.019 279.927,60.436 279.527,61.77C277.719,67.808 270.847,69.663 264.543,70ZM13.095,67.917C13.436,67.917 13.157,67.917 13.059,67.917L13.034,67.916C10.095,67.893 6.439,66.3 4.824,64.496C1.358,60.622 1.264,54.905 3.924,50.099C5.53,47.196 8.184,44.806 10.668,42.498C13.796,39.591 16.81,36.467 18.945,32.884C19.015,32.766 19.086,32.645 19.155,32.523C19.157,32.764 19.14,33.008 19.101,33.256C18.946,34.238 18.569,35.168 18.037,36.037C17.866,36.317 17.681,36.588 17.473,36.847C17.412,36.924 17.348,36.999 17.28,37.071C17.296,37.053 17.344,37.006 17.344,37.006C17.344,37.006 16.811,37.649 16.777,37.716C16.336,38.6 16.606,39.28 16.826,39.67C17.121,40.196 17.699,40.905 18.965,40.707C19.078,40.689 19.316,40.655 19.65,40.474C22.565,38.888 25.252,35.952 25.809,32.876C26.083,31.361 26.02,29.896 26.024,28.475C26.028,27.032 26.072,25.63 27.325,24.318C28.302,23.295 29.551,22.776 30.878,22.422C32.515,21.985 34.272,21.799 35.956,21.517C39.031,21.001 42.084,20.092 44.796,18.673C47.235,17.397 49.146,15.568 50.991,13.681C51.145,13.523 51.298,13.364 51.449,13.203C51.786,14.344 51.888,15.546 51.357,16.651C50.652,18.118 49.421,19.553 48.615,21.083C47.875,22.488 47.442,23.961 47.599,25.527C47.741,26.956 48.365,28.194 49.187,29.352C49.775,30.181 50.475,30.964 51.01,31.816C52.336,33.93 53.002,36.284 52.554,38.711C52.442,39.32 52.606,39.947 53.002,40.422C53.398,40.898 53.984,41.173 54.603,41.173L54.724,41.124C55.214,41.108 55.684,40.919 56.05,40.59L56.056,40.585C57.099,39.637 57.965,38.545 59.101,37.679C61.046,36.198 63.17,35.049 64.855,33.273C65.512,32.581 66.095,31.837 66.565,31.036C67.143,32.278 67.354,33.675 67.134,34.993C67.034,35.597 67.204,36.215 67.6,36.682C67.996,37.149 68.577,37.419 69.189,37.419L69.239,37.379C70.176,37.362 70.987,36.72 71.218,35.81L71.22,35.804C71.672,34.004 71.64,32.122 71.681,30.254C71.712,28.844 71.771,27.437 72.41,26.129C73.729,23.43 76.218,21.932 79.048,20.974C82.27,19.883 85.941,19.496 89.227,19.173C90.786,19.02 92.343,18.851 93.905,18.725C95.642,18.585 97.385,18.419 99.102,18.137C102.277,17.614 105.124,16.545 107.697,14.821C107.645,14.924 107.59,15.022 107.533,15.113C107.207,15.635 106.793,16.106 106.418,16.6C106.299,16.757 106.182,16.916 106.057,17.07C106.102,17.015 106.249,16.869 106.249,16.869C106.249,16.869 105.403,18.019 105.359,18.255C105.229,18.949 105.417,19.526 105.823,20.003C106.067,20.29 106.482,20.689 107.305,20.742C108.064,20.791 109.117,20.441 109.838,20.229C111.56,19.725 113.256,18.997 114.85,18.209C114.737,18.821 114.566,19.418 114.366,20.012L114.3,20.253L114.259,20.586C114.247,20.853 114.287,21.121 114.377,21.373L114.514,21.682L114.706,21.97C114.845,22.147 115.012,22.298 115.196,22.419L115.282,22.472L115.55,22.605L115.847,22.702L116.186,22.755L116.483,22.756L116.676,22.734L116.664,22.735C117.299,22.636 117.859,22.247 118.171,21.672C118.923,20.287 119.997,18.873 121.269,17.818C122.928,16.442 125.013,15.554 126.837,14.378C127.966,13.65 129.066,12.863 130.06,11.988C131.714,13.946 133.565,15.727 135.834,17.227C137.422,18.276 139.258,18.969 140.815,20.064C142.764,21.435 143.879,23.151 143.857,25.33L143.856,25.389L143.858,25.391C143.868,25.925 144.083,26.436 144.46,26.817C144.835,27.196 145.34,27.416 145.871,27.433L145.94,27.503L146.124,27.426C146.562,27.388 146.961,27.215 147.279,26.947L147.418,26.89L147.286,26.941L147.418,26.889C148.756,25.654 150.138,24.496 151.568,23.347C151.736,23.212 151.903,23.073 152.066,22.931L152.138,23.08C152.995,24.857 152.861,26.538 152.574,28.398C152.482,28.999 152.656,29.61 153.052,30.072C153.423,30.504 153.954,30.765 154.52,30.796L154.633,30.799L156.594,29.425C156.833,28.837 157.085,28.219 157.502,27.714C158.717,26.245 160.388,25.55 162.147,24.979C164.357,24.261 166.713,23.752 168.839,22.794C171.137,21.757 173.317,20.347 174.581,18.279C174.703,18.08 174.818,17.877 174.923,17.67C175.374,18.198 175.762,18.782 176.162,19.318C177.831,21.55 179.585,24.075 179.833,26.814C179.961,28.23 179.756,29.41 179.584,30.794C179.511,31.387 179.695,31.982 180.09,32.43C180.315,32.685 180.597,32.878 180.907,32.996L180.846,32.985L180.908,32.997C181.129,33.081 181.366,33.128 181.607,33.133L181.615,33.135L181.444,33.127L181.619,33.135L181.63,33.137L181.931,33.115L181.918,33.116L181.954,33.112L181.943,33.113C182.15,33.085 182.352,33.026 182.542,32.937C184.73,31.916 186.891,30.642 188.944,29.406C189.072,29.329 189.2,29.252 189.328,29.175C189.385,29.297 189.438,29.421 189.495,29.543C189.798,30.2 190.079,30.868 190.454,31.458C190.99,32.303 191.65,33.05 192.405,33.677C195.17,35.975 199.057,36.427 202.648,34.656C202.661,34.649 202.674,34.643 202.688,34.636C205.785,33.026 207.47,30.222 209.521,27.613C211.66,24.893 214.385,22.191 217.601,20.479C218.984,19.742 220.427,19.09 221.914,18.534C220.979,20.736 221.016,23.198 222.279,25.429C223.53,27.641 225.058,29.728 226.239,31.972C226.803,33.045 227.549,34.054 227.584,35.26C227.616,36.352 228.483,37.227 229.562,37.28L229.667,37.283L231.546,36.099C232.256,34.701 233.414,33.638 234.561,32.561C236.036,31.177 237.51,29.786 238.516,28.044C239.135,26.973 239.566,25.729 239.721,24.497C240.862,25.265 241.801,26.237 242.712,27.232C247.03,31.95 249.676,38.712 248.547,44.884C248.435,45.492 248.6,46.118 248.996,46.593C249.029,46.633 249.064,46.672 249.101,46.709L249.099,46.708L249.101,46.709L249.31,46.899C249.67,47.185 250.124,47.352 250.607,47.352L250.766,47.346C251.136,47.318 251.492,47.191 251.798,46.978C254.126,45.357 256.46,43.293 258.136,41.096C258.282,40.905 258.421,40.712 258.554,40.515C260.124,41.98 261.096,44.323 261.495,46.152C261.669,46.945 261.746,47.755 261.74,48.563C261.739,48.812 261.729,49.061 261.708,49.31C261.67,49.523 261.593,49.97 261.597,50.09C261.605,50.378 261.667,50.61 261.734,50.785C262.081,51.701 262.749,52.076 263.538,52.135C263.869,52.16 264.484,52.181 265.149,51.56C266.287,50.498 267.119,49.177 267.685,47.767C268.911,48.805 270.338,49.667 271.786,50.503C273.575,51.538 275.411,52.514 276.586,54.089C277.362,55.128 277.856,56.469 277.906,57.724C277.951,58.874 277.865,60.058 277.532,61.173C276.809,63.586 275.032,65.124 272.849,66.131C270.365,67.277 267.37,67.757 264.503,67.916C264.486,67.917 13.095,67.917 13.095,67.917ZM227.828,34.22L227.824,34.226C226.874,36.113 229.284,37.095 229.642,37.228L229.55,37.024L227.828,34.22ZM67.178,34.794C67.128,34.991 67.107,35.174 67.11,35.344C67.112,35.514 67.138,35.671 67.182,35.815C67.097,35.485 67.093,35.134 67.178,34.794ZM260.902,33.461C260.374,32.922 259.9,32.304 259.568,31.622C259.306,31.083 259.138,30.5 259.048,29.909C258.925,29.104 258.865,28.24 259.078,27.444C259.695,25.132 261.836,23.608 262.988,21.594C263.606,20.514 263.701,19.324 263.671,18.102C263.662,17.726 263.609,17.349 263.527,16.982C263.499,16.856 263.467,16.73 263.434,16.605C263.419,16.55 263.334,16.423 263.388,16.44C263.871,16.59 264.238,16.979 264.554,17.354C265.212,18.134 265.699,19.036 266.039,19.996C266.684,21.818 267.216,24.26 266.254,26.069C265.595,27.309 264.288,27.752 263.353,28.706C262.067,30.021 260.981,31.67 260.902,33.461ZM181.699,33.132L181.638,33.134L181.638,33.136L181.699,33.132ZM181.624,33.135L181.623,33.133L181.615,33.133L181.624,33.135ZM181.259,29.005C180.201,29.205 180.13,29.999 180.391,30.838C180.652,31.677 181.246,32.561 181.519,32.941C181.115,32.171 179.76,29.362 181.259,29.005ZM10.993,32.055C11.024,31.109 11.158,29.316 10.85,28.414C10.036,26.026 8.132,24.223 7.199,21.889C6.602,20.395 6.43,18.764 7.155,17.283C7.422,16.739 7.791,16.26 8.207,15.822C8.291,15.733 8.378,15.646 8.464,15.559C8.516,15.507 8.588,15.337 8.62,15.403C9.287,16.77 9.599,18.113 10.52,19.369C12.392,21.923 16.836,24.644 14.873,28.406C14.547,29.03 14.014,29.56 13.521,30.056C12.919,30.66 12.029,31.264 10.993,32.055ZM181.63,31.054L181.638,31.053L181.624,31.052L181.63,31.054ZM180.914,29.098L180.729,29.187C180.785,29.154 180.846,29.124 180.914,29.098ZM197.608,28.513C197.316,26.079 195.52,23.813 196.204,21.295C196.765,19.233 199.398,18.341 200.633,16.713C201.306,15.825 201.689,14.854 201.808,13.746C201.847,13.387 201.86,13.024 201.847,12.663C201.841,12.492 201.637,12.154 201.808,12.152C202.499,12.14 203.159,12.767 203.539,13.275C203.782,13.601 203.989,13.956 204.164,14.323C204.464,14.953 204.687,15.635 204.849,16.313C205.681,19.785 204.888,24.621 202.259,27.172C201.348,28.055 200.312,28.79 199.054,29.101C198.715,29.185 197.665,28.988 197.608,28.513ZM56.69,28.269C56.239,27.616 55.905,26.91 55.684,26.148C55.516,25.566 55.391,24.954 55.363,24.347C55.225,21.319 57.397,19.904 58.788,17.54C59.306,16.661 59.698,15.655 59.714,14.624C59.719,14.26 59.696,13.894 59.615,13.538C59.575,13.36 59.294,12.927 59.454,13.015C63.127,15.032 64.461,21.428 61.988,24.815C60.621,26.688 58.498,27.066 56.69,28.269ZM199.671,28.218L199.677,28.265L199.671,28.218ZM264.673,22.837C264.052,23.859 263.221,24.781 262.443,25.729C261.876,26.42 261.322,27.116 261.09,27.982C261.075,28.039 261.063,28.097 261.053,28.155C261.31,27.84 261.582,27.538 261.864,27.249C262.328,26.776 262.857,26.395 263.387,26.021C263.766,25.753 264.181,25.53 264.415,25.091C264.773,24.418 264.798,23.627 264.673,22.837ZM9.038,20.86C9.068,20.946 9.1,21.031 9.134,21.116C9.546,22.148 10.188,23.054 10.802,23.975C11.597,25.166 12.356,26.375 12.822,27.741L12.826,27.755C12.901,27.655 12.969,27.551 13.026,27.442C13.576,26.388 13.083,25.506 12.467,24.683C11.437,23.306 9.99,22.061 9.038,20.86ZM202.885,17.078C203.464,19.887 202.882,23.664 200.808,25.676C200.37,26.101 199.9,26.493 199.364,26.77C199.189,26.155 198.97,25.545 198.749,24.936C198.381,23.921 197.921,22.923 198.215,21.842C198.432,21.042 199.252,20.625 199.95,20.104C200.83,19.445 201.688,18.769 202.293,17.972C202.513,17.681 202.711,17.383 202.885,17.078ZM60.82,18.173C60.885,18.391 60.941,18.612 60.988,18.834C61.345,20.515 61.219,22.335 60.306,23.586C59.703,24.412 58.867,24.795 58.034,25.197L57.636,25.39C57.537,25.019 57.462,24.635 57.444,24.252C57.387,22.999 57.975,22.174 58.604,21.341C59.259,20.474 59.985,19.615 60.584,18.597C60.665,18.459 60.744,18.317 60.82,18.173ZM158.847,20.154C157.793,18.383 158.99,16.738 159.566,15.037C159.932,13.955 160.03,12.811 160.021,11.675C160.019,11.336 159.989,11.008 159.918,10.676C159.894,10.564 159.866,10.452 159.835,10.342C159.828,10.319 159.784,10.175 159.786,10.174C160.06,10.054 160.496,10.284 160.723,10.411C161.472,10.831 162.041,11.518 162.531,12.21C163.867,14.096 164.305,16.382 163.213,18.501C162.485,19.916 159.607,21.433 158.847,20.154ZM161.67,15.283C161.63,15.424 161.587,15.565 161.539,15.704C161.304,16.4 160.969,17.087 160.719,17.776C160.669,17.911 160.617,18.046 160.577,18.182C160.909,17.997 161.248,17.766 161.361,17.547C161.744,16.803 161.818,16.03 161.67,15.283Z" style="fill:#ff5719;"/>
        <g transform="matrix(1,0,0,1.02839,0,-0.428934)">
            <path d="M153.183,39.375C154.01,38.643 154.761,37.874 155.754,37.357C160.144,35.07 165.518,36.042 170.173,36.11C174.484,36.173 179.256,35.345 181.751,34.534C182.595,34.259 183.446,33.953 184.226,33.536C184.627,33.323 185.596,32.678 185.596,32.678C185.596,32.678 187.51,36.263 186.035,41.852C185.961,42.129 185.912,42.411 185.833,42.687C185.806,42.781 185.778,42.875 185.748,42.968C185.73,43.028 185.65,43.193 185.691,43.146C185.95,42.849 186.107,42.371 186.307,42.028C186.697,41.36 187.152,40.73 187.687,40.172C189.16,38.636 191.059,37.672 192.825,36.536C193.325,36.215 193.786,35.83 194.232,35.439C194.373,35.316 194.507,35.182 194.63,35.041C194.644,35.026 194.804,34.816 194.807,34.818C195.778,35.289 196.42,36.644 196.982,37.508C197.652,38.539 198.218,39.582 198.605,40.659C201.291,38.439 204.798,37.155 207.327,34.641C208.617,33.359 209.656,31.826 210.329,30.138C210.56,29.561 210.742,28.973 210.905,28.374C210.956,28.187 211.007,28 211.051,27.811C211.074,27.714 211.028,27.469 211.114,27.519C212.986,28.6 214.205,31.122 215.676,32.682C218.231,35.391 221.316,37.538 223.842,40.277C225.011,41.545 226.019,42.904 226.475,44.589C226.622,45.131 226.726,45.689 226.78,46.249C226.798,46.443 226.809,46.637 226.814,46.831C226.816,46.921 226.776,47.181 226.818,47.101C227.37,46.058 227.725,44.882 228.438,43.931C230.083,41.74 232.368,40.018 234.072,37.842C234.889,36.798 235.752,35.736 236.412,34.581C236.623,34.211 236.815,33.827 236.988,33.438C237.075,33.242 237.024,32.725 237.208,32.834C237.503,33.008 237.779,33.513 237.969,33.794C238.494,34.572 238.948,35.395 239.392,36.221C241.05,39.304 242.777,42.477 243.639,45.892C243.975,47.223 244.167,48.584 244.296,49.949C244.341,50.413 244.404,50.891 244.4,51.36C244.398,51.516 244.391,51.673 244.381,51.829C244.377,51.894 244.316,52.062 244.367,52.022C245.58,51.062 246.425,49.708 247.619,48.727C248.776,47.775 250.132,47.323 251.538,46.881C252.033,46.726 252.519,46.552 252.988,46.331C253.208,46.228 253.458,45.769 253.613,45.956C254.67,47.224 254.44,49.685 254.141,51.169C254.037,51.686 253.88,52.201 253.692,52.694C253.626,52.868 253.556,53.039 253.481,53.209C253.446,53.289 253.291,53.477 253.373,53.447C254.635,52.971 255.651,52.336 257.044,52.463C259.542,52.692 261.602,54.489 264.174,54.454C265.218,54.44 266.086,53.825 266.697,53.021C266.958,52.677 267.297,51.517 267.689,51.732C268.55,52.205 268.968,53.23 269.194,54.134C269.667,56.027 269.792,58.067 269.416,59.985C268.031,67.06 259.989,68.086 253.969,68.498C252.863,68.573 251.754,68.614 250.646,68.667C248.478,68.772 246.306,68.727 244.135,68.657L20.032,68.304L19.919,68.278C15.168,67.17 11.344,64.329 8.622,60.313C7.117,58.092 6.072,55.213 6.856,52.527C7.415,50.612 8.731,49.305 10.072,47.917C11.417,46.524 12.793,45.108 14.059,43.641C14.917,42.646 15.6,41.539 16.171,40.358C16.36,39.967 16.543,39.569 16.687,39.159C16.733,39.032 16.773,38.902 16.801,38.769C16.816,38.702 16.792,38.512 16.833,38.567C17.671,39.681 18.153,41.243 18.329,42.612C18.39,43.088 18.405,43.559 18.334,44.034C18.311,44.194 18.279,44.352 18.243,44.509C18.226,44.584 18.156,44.803 18.189,44.733C19.718,41.5 22.326,40.024 25.317,38.319C27.767,36.923 30.393,35.411 32.412,33.421C33.665,32.186 34.688,30.719 34.63,28.898C34.608,28.22 34.522,27.535 34.349,26.879C34.292,26.662 34.223,26.449 34.147,26.238C34.105,26.123 33.895,25.89 34.017,25.895C35.982,25.962 39.993,27.997 43.658,31.491C45.446,33.197 46.764,35.272 47.836,37.511C48.484,38.865 49.216,40.675 49.197,42.216L49.244,42.386L49.245,42.387C49.831,42.019 50.458,41.732 51.097,41.469C51.162,41.442 51.617,41.192 51.674,41.229C52.127,41.522 52.434,42.156 52.547,42.676C52.587,42.86 52.607,43.048 52.618,43.236C52.624,43.332 52.538,43.551 52.631,43.525C52.666,43.514 52.859,43.426 52.884,43.415C54.519,42.647 56.144,41.312 57.412,40.035C57.773,39.672 58.106,39.281 58.42,38.876C58.449,38.838 58.67,38.465 58.753,38.469C59.948,38.515 60.749,40.001 61.095,40.973C61.213,41.303 61.306,41.643 61.391,41.984C61.437,42.169 61.335,42.593 61.518,42.541C61.782,42.467 62.137,41.785 62.322,41.552C62.945,40.77 63.56,40.006 64.315,39.344C66.96,37.023 70.97,37.127 72.586,33.589C73.316,31.989 73.932,30.289 73.977,28.547C74.023,26.817 73.595,25.837 73.784,25.87C76.498,26.34 77.62,30.235 78.088,32.471C78.254,33.265 78.383,34.069 78.529,34.868C78.577,35.132 78.622,35.397 78.663,35.663C78.686,35.809 78.66,36.235 78.727,36.102C79.88,33.797 80.048,31.086 81.581,28.952C84.076,25.482 88.7,24.352 92.178,22.152C93.576,21.268 94.969,20.327 96.243,19.269C96.497,19.058 96.748,18.839 96.962,18.587C97.066,18.465 97.096,18.146 97.247,18.2C98.171,18.529 98.764,19.766 99.092,20.59C99.971,22.793 100.665,25.216 101.051,27.56C101.201,28.47 101.337,29.399 101.41,30.319C101.435,30.63 101.431,30.941 101.406,31.252C101.394,31.406 101.275,31.845 101.353,31.712C102.625,29.542 104.374,28.052 106.554,26.844C107.508,26.315 108.308,25.808 109.427,25.821C111.58,25.844 113.47,26.884 114.474,28.812C114.813,29.464 115.014,30.183 115.14,30.904C115.179,31.129 115.216,31.358 115.235,31.586L115.24,31.954C115.244,32.072 115.244,31.737 115.236,31.602C115.308,27.452 119.6,24.354 122.842,22.546C123.94,21.934 125.123,21.435 126.144,20.693C127.334,19.829 128.276,18.554 128.857,17.205C129.049,16.76 129.199,16.297 129.298,15.822C129.346,15.592 129.214,14.99 129.404,15.127C129.694,15.336 129.956,15.581 130.192,15.849C132.919,18.328 134.67,21.7 136.935,24.576C138.283,26.288 140.151,27.452 141.655,29.01C142.866,30.265 143.859,31.852 144.402,33.513C144.58,34.057 144.701,34.613 144.79,35.179C144.82,35.366 144.844,35.553 144.868,35.741C144.882,35.851 144.876,36.174 144.909,36.069C145.689,33.608 147.288,32.414 149.052,30.71C149.367,30.405 149.694,30.102 149.953,29.746C150.153,29.471 150.146,29.123 150.504,29.209C152.237,29.628 154.463,35 153.183,39.375Z" style="fill:#ffa658;"/>
        </g>
        <g transform="matrix(1,0,0,1.02839,0,-0.428934)">
            <path d="M20.475,68.305L20.032,68.304L19.919,68.278C15.168,67.17 11.344,64.329 8.622,60.313C7.117,58.092 6.072,55.213 6.856,52.527C7.415,50.612 8.731,49.305 10.072,47.917C11.417,46.524 12.793,45.108 14.059,43.641C14.917,42.646 15.6,41.539 16.171,40.358C16.36,39.967 16.543,39.569 16.687,39.159C16.733,39.032 16.773,38.902 16.801,38.769C16.816,38.702 16.792,38.512 16.833,38.567C17.671,39.681 18.153,41.243 18.329,42.612C18.39,43.088 18.405,43.559 18.334,44.034C18.311,44.194 18.279,44.352 18.243,44.509C18.226,44.584 18.156,44.803 18.189,44.733C19.718,41.5 22.326,40.024 25.317,38.319C27.767,36.923 30.393,35.411 32.412,33.421C33.665,32.186 34.688,30.719 34.63,28.898C34.608,28.22 34.522,27.535 34.349,26.879C34.292,26.662 34.223,26.449 34.147,26.238C34.105,26.123 33.895,25.89 34.017,25.895C35.982,25.962 39.993,27.997 43.658,31.491C45.446,33.197 46.764,35.272 47.836,37.511C48.484,38.865 49.216,40.675 49.197,42.216L49.245,42.387C49.831,42.019 50.458,41.732 51.097,41.469C51.162,41.442 51.617,41.192 51.674,41.229C52.127,41.522 52.434,42.156 52.547,42.676C52.587,42.86 52.607,43.048 52.618,43.236C52.624,43.332 52.538,43.551 52.631,43.525C52.666,43.514 52.859,43.426 52.884,43.415C54.519,42.647 56.144,41.312 57.412,40.035C57.773,39.672 58.106,39.281 58.42,38.876C58.449,38.838 58.67,38.465 58.753,38.469C59.948,38.515 60.749,40.001 61.095,40.973C61.213,41.303 61.306,41.643 61.391,41.984C61.437,42.169 61.335,42.593 61.518,42.541C61.782,42.467 62.137,41.785 62.322,41.552C62.945,40.77 63.56,40.006 64.315,39.344C66.96,37.023 70.97,37.127 72.586,33.589C73.316,31.989 73.932,30.289 73.977,28.547C74.023,26.817 73.595,25.837 73.784,25.87C76.498,26.34 77.62,30.235 78.088,32.471C78.254,33.265 78.383,34.069 78.529,34.868C78.577,35.132 78.622,35.397 78.663,35.663C78.686,35.809 78.66,36.235 78.727,36.102C79.88,33.797 80.048,31.086 81.581,28.952C84.076,25.482 88.7,24.352 92.178,22.152C93.576,21.268 94.969,20.327 96.243,19.269C96.497,19.058 96.748,18.839 96.962,18.587C97.066,18.465 97.096,18.146 97.247,18.2C98.171,18.529 98.764,19.766 99.092,20.59C99.971,22.793 100.665,25.216 101.051,27.56C101.201,28.47 101.337,29.399 101.41,30.319C101.435,30.63 101.431,30.941 101.406,31.252C101.394,31.406 101.275,31.845 101.353,31.712C102.625,29.542 104.374,28.052 106.554,26.844C107.508,26.315 108.308,25.808 109.427,25.821C111.58,25.844 113.47,26.884 114.474,28.812C114.813,29.464 115.014,30.183 115.14,30.904C115.179,31.129 115.216,31.358 115.235,31.586L115.24,31.954C115.244,32.072 115.244,31.737 115.236,31.602C115.308,27.452 119.6,24.354 122.842,22.546C123.94,21.934 125.123,21.435 126.144,20.693C127.334,19.829 128.276,18.554 128.857,17.205C129.049,16.76 129.199,16.297 129.298,15.822C129.346,15.592 129.214,14.99 129.404,15.127C129.694,15.336 129.956,15.581 130.192,15.849C132.919,18.328 134.67,21.7 136.935,24.576C138.283,26.288 140.151,27.452 141.655,29.01C142.866,30.265 143.859,31.852 144.402,33.513C144.58,34.057 144.701,34.613 144.79,35.179C144.82,35.366 144.844,35.553 144.868,35.741C144.882,35.851 144.876,36.174 144.909,36.069C145.689,33.608 147.288,32.414 149.052,30.71C149.367,30.405 149.694,30.102 149.953,29.746C150.153,29.471 150.146,29.123 150.504,29.209C152.237,29.628 154.463,35 153.183,39.375C154.01,38.643 154.761,37.874 155.754,37.357C160.144,35.07 165.518,36.042 170.173,36.11C174.484,36.173 179.256,35.345 181.751,34.534C182.595,34.259 183.446,33.953 184.226,33.536C184.627,33.323 185.596,32.678 185.596,32.678C185.596,32.678 187.51,36.263 186.035,41.852C185.961,42.129 185.912,42.411 185.833,42.687C185.806,42.781 185.778,42.875 185.748,42.968C185.73,43.028 185.65,43.193 185.691,43.146C185.95,42.849 186.107,42.371 186.307,42.028C186.697,41.36 187.152,40.73 187.687,40.172C189.16,38.636 191.059,37.672 192.825,36.536C193.325,36.215 193.786,35.83 194.232,35.439C194.373,35.316 194.507,35.182 194.63,35.041C194.644,35.026 194.804,34.816 194.807,34.818C195.778,35.289 196.42,36.644 196.982,37.508C197.652,38.539 198.218,39.582 198.605,40.659C201.291,38.439 204.798,37.155 207.327,34.641C208.617,33.359 209.656,31.826 210.329,30.138C210.56,29.561 210.742,28.973 210.905,28.374C210.956,28.187 211.007,28 211.051,27.811C211.074,27.714 211.028,27.469 211.114,27.519C212.986,28.6 214.205,31.122 215.676,32.682C218.231,35.391 221.316,37.538 223.842,40.277C225.011,41.545 226.019,42.904 226.475,44.589C226.622,45.131 226.726,45.689 226.78,46.249C226.798,46.443 226.809,46.637 226.814,46.831C226.816,46.921 226.776,47.181 226.818,47.101C227.37,46.058 227.725,44.882 228.438,43.931C230.083,41.74 232.368,40.018 234.072,37.842C234.889,36.798 235.752,35.736 236.412,34.581C236.623,34.211 236.815,33.827 236.988,33.438C237.075,33.242 237.024,32.725 237.208,32.834C237.503,33.008 237.779,33.513 237.969,33.794C238.494,34.572 238.948,35.395 239.392,36.221C241.05,39.304 242.777,42.477 243.639,45.892C243.975,47.223 244.167,48.584 244.296,49.949C244.341,50.413 244.404,50.891 244.4,51.36C244.398,51.516 244.391,51.673 244.381,51.829C244.377,51.894 244.316,52.062 244.367,52.022C245.58,51.062 246.425,49.708 247.619,48.727C248.776,47.775 250.132,47.323 251.538,46.881C252.033,46.726 252.519,46.552 252.988,46.331C253.208,46.228 253.458,45.769 253.613,45.956C254.67,47.224 254.44,49.685 254.141,51.169C254.037,51.686 253.88,52.201 253.692,52.694C253.626,52.868 253.556,53.039 253.481,53.209C253.446,53.289 253.291,53.477 253.373,53.447C254.635,52.971 255.651,52.336 257.044,52.463C259.542,52.692 261.602,54.489 264.174,54.454C265.218,54.44 266.086,53.825 266.697,53.021C266.958,52.677 267.297,51.517 267.689,51.732C268.55,52.205 268.968,53.23 269.194,54.134C269.667,56.027 269.792,58.067 269.416,59.985C268.031,67.06 259.989,68.086 253.969,68.498C252.863,68.573 251.754,68.614 250.646,68.667C248.478,68.772 246.306,68.727 244.135,68.657L22.115,68.307L22.115,68.306L20.475,68.305ZM113.166,32.152L113.153,31.702C113.138,31.554 113.112,31.407 113.087,31.261C112.998,30.749 112.866,30.236 112.625,29.774C111.988,28.549 110.771,27.919 109.404,27.904C108.673,27.896 108.187,28.321 107.563,28.667C105.72,29.688 104.226,30.93 103.151,32.765C102.77,33.415 102.318,33.583 102.134,33.66C101.567,33.896 101.064,33.853 100.63,33.698C100.147,33.525 99.47,33.139 99.279,32.11C99.258,31.997 99.341,30.99 99.341,30.99C99.341,30.99 99.331,31.062 99.329,31.088C99.345,30.887 99.349,30.686 99.333,30.484C99.265,29.622 99.136,28.751 98.995,27.898C98.634,25.7 97.982,23.428 97.157,21.362L97.111,21.248C95.897,22.212 94.597,23.087 93.291,23.913C91.505,25.043 89.428,25.905 87.473,26.923C85.863,27.762 84.329,28.699 83.273,30.168C82.641,31.048 82.315,32.057 82.003,33.073C81.592,34.417 81.218,35.779 80.59,37.035C80.141,37.932 79.482,38.088 79.168,38.159C78.373,38.34 77.527,38.197 76.922,37.213C76.837,37.075 76.59,35.858 76.59,35.858C76.59,35.858 76.599,35.949 76.604,35.982C76.566,35.734 76.524,35.487 76.479,35.24C76.337,34.459 76.211,33.674 76.048,32.897C75.95,32.428 75.822,31.874 75.648,31.299C75.361,32.379 74.946,33.436 74.481,34.455C73.439,36.735 71.685,37.905 69.707,38.816C68.351,39.44 66.857,39.885 65.689,40.91C65.028,41.49 64.497,42.166 63.951,42.851C63.764,43.086 63.413,43.664 63.12,43.943C62.772,44.273 62.401,44.456 62.085,44.546C61.007,44.851 60.307,44.454 59.8,43.807C59.577,43.523 59.321,42.147 59.321,42.147C59.321,42.147 59.347,42.397 59.37,42.49C59.301,42.215 59.228,41.939 59.133,41.672C59.099,41.579 59.06,41.479 59.015,41.375L58.89,41.504C57.459,42.943 55.614,44.434 53.769,45.301C53.716,45.326 53.287,45.504 53.209,45.526C52.709,45.671 52.304,45.614 51.982,45.513C51.631,45.402 51.335,45.214 51.09,44.957C50.966,44.827 50.839,44.369 50.741,43.926C50.609,43.997 50.479,44.072 50.351,44.152C50.02,44.36 49.636,44.47 49.245,44.47L49.158,44.469C48.307,44.433 47.564,43.883 47.281,43.082L47.201,42.793L47.193,42.785L47.201,42.792C47.165,42.609 47.154,42.425 47.167,42.244L47.114,42.19C47.129,40.946 46.48,39.503 45.957,38.411C44.995,36.401 43.825,34.53 42.22,32.999C40.356,31.222 38.4,29.85 36.714,28.974C36.74,31.334 35.509,33.294 33.875,34.905C31.729,37.02 28.952,38.645 26.349,40.129C23.747,41.613 21.402,42.812 20.072,45.624C19.943,45.896 19.821,46.035 19.767,46.098C19.079,46.905 18.326,46.861 17.941,46.816C17.349,46.748 16.802,46.476 16.41,45.845C16.287,45.646 16.081,45.276 16.098,44.686C16.098,44.658 16.121,44.521 16.147,44.375C15.983,44.588 15.813,44.797 15.636,45.002C14.345,46.498 12.943,47.944 11.57,49.365C10.466,50.507 9.316,51.534 8.856,53.11C8.246,55.201 9.175,57.415 10.347,59.144C12.746,62.684 16.096,65.213 20.278,66.221L244.138,66.574C244.159,66.574 244.181,66.574 244.202,66.575C246.318,66.643 248.434,66.688 250.546,66.586C251.64,66.534 252.735,66.494 253.827,66.419C256.631,66.227 259.911,65.921 262.647,64.81C264.939,63.879 266.831,62.346 267.372,59.584C267.643,58.201 267.598,56.743 267.329,55.351C266.454,56.068 265.387,56.521 264.202,56.537C262.625,56.558 261.195,56.064 259.787,55.484C258.831,55.09 257.894,54.633 256.854,54.538C255.799,54.442 255.063,55.036 254.107,55.396C253.525,55.615 253.097,55.536 252.828,55.465C251.923,55.229 251.385,54.646 251.278,53.669C251.257,53.473 251.684,52.16 251.684,52.16C251.684,52.16 251.598,52.316 251.574,52.371C251.634,52.233 251.692,52.094 251.745,51.953C251.893,51.566 252.017,51.163 252.099,50.757C252.208,50.218 252.309,49.521 252.309,48.821L252.162,48.869C251.014,49.23 249.887,49.558 248.942,50.336C247.739,51.326 246.883,52.688 245.66,53.656C245.175,54.04 244.741,54.096 244.453,54.109C243.581,54.151 242.917,53.792 242.498,52.98C242.404,52.799 242.338,51.434 242.338,51.434C242.338,51.434 242.307,51.625 242.302,51.69C242.31,51.573 242.315,51.456 242.316,51.338C242.32,50.942 242.26,50.539 242.222,50.146C242.103,48.887 241.929,47.63 241.619,46.402C240.799,43.152 239.135,40.141 237.557,37.208L237.394,36.907C236.862,37.67 236.278,38.403 235.712,39.126C234.017,41.291 231.741,43.002 230.104,45.182C229.456,46.045 229.161,47.127 228.66,48.075C228.396,48.574 228.082,48.776 227.913,48.881C227.22,49.315 226.588,49.267 226.051,49.058C225.658,48.905 225.224,48.622 224.935,48.038C224.879,47.923 224.733,46.758 224.733,46.758C224.733,46.758 224.73,46.853 224.731,46.887C224.727,46.741 224.72,46.595 224.706,46.449C224.663,46.005 224.58,45.563 224.464,45.132C224.098,43.778 223.25,42.709 222.31,41.689C219.789,38.956 216.71,36.814 214.161,34.111C213.436,33.343 212.761,32.36 212.054,31.407C211.278,33.164 210.16,34.763 208.796,36.119C206.221,38.678 202.666,40.005 199.932,42.265C199.409,42.697 198.708,42.848 198.053,42.668C197.399,42.489 196.873,42.001 196.644,41.363C196.31,40.431 195.815,39.535 195.235,38.644C195.066,38.382 194.889,38.074 194.696,37.76C194.455,37.947 194.207,38.125 193.952,38.289C192.322,39.336 190.55,40.196 189.191,41.613C188.769,42.053 188.413,42.552 188.106,43.078C187.844,43.527 187.599,44.128 187.26,44.516C186.929,44.895 186.627,45.018 186.476,45.08C185.538,45.467 184.856,45.169 184.365,44.77C184.033,44.5 183.656,44.059 183.601,43.301C183.594,43.2 183.799,42.236 183.799,42.236C183.799,42.236 183.77,42.315 183.762,42.342C183.785,42.266 183.808,42.191 183.83,42.115C183.905,41.853 183.951,41.583 184.02,41.32C184.629,39.013 184.572,37.113 184.357,35.783C183.719,36.065 183.056,36.3 182.395,36.515C179.754,37.373 174.705,38.26 170.143,38.193C167.834,38.159 165.347,37.899 162.893,37.933C160.746,37.963 158.621,38.212 156.716,39.204C155.877,39.641 155.263,40.316 154.564,40.935L153.183,41.458L151.184,38.79C151.81,36.648 151.381,34.216 150.653,32.538C150.607,32.432 150.552,32.323 150.493,32.214C148.996,33.66 147.557,34.61 146.895,36.699C146.735,37.203 146.49,37.446 146.366,37.569C145.693,38.235 144.987,38.26 144.39,38.11C143.974,38.006 143.466,37.769 143.098,37.143C143.039,37.042 142.793,35.923 142.793,35.923C142.793,35.923 142.799,35.983 142.801,36.004C142.78,35.838 142.759,35.671 142.733,35.504C142.66,35.048 142.566,34.599 142.422,34.16C141.975,32.793 141.153,31.49 140.156,30.457C138.604,28.849 136.69,27.632 135.299,25.865C133.555,23.652 132.142,21.123 130.31,18.972C129.584,20.296 128.574,21.503 127.368,22.379C126.28,23.169 125.027,23.713 123.856,24.366C122.392,25.182 120.682,26.281 119.339,27.653C118.245,28.771 117.365,30.065 117.32,31.581L117.32,32.057L117.319,32.071L117.322,31.936L117.32,32.057L117.32,32.127C117.2,33.769 115.736,34.008 115.591,34.033C114.99,34.135 114.298,34.052 113.686,33.365C113.66,33.336 113.238,33.022 113.167,32.165L113.166,32.152ZM50.556,42.985L50.559,42.986L50.556,42.972L50.556,42.985ZM116.993,33.079C116.406,33.926 115.24,34.038 115.24,34.038C115.807,34.038 116.349,33.806 116.742,33.398C116.837,33.299 116.921,33.192 116.993,33.079ZM113.53,33.145C113.829,33.545 114.257,33.768 114.609,33.891C114.962,34.014 115.24,34.038 115.24,34.038C114.534,34.038 113.907,33.686 113.53,33.145Z" style="fill:#ff9334;"/>
        </g>
        <g transform="matrix(1,0,0,1.04505,0,-0.911707)">
            <path d="M229.31,66.813L30.007,66.813C25.504,66.169 21.371,64.202 19.878,59.554C19.606,58.705 19.42,57.813 19.381,56.921C19.29,54.825 20.199,53.025 20.944,51.133C21.161,50.582 21.401,50.001 21.376,49.397C21.367,49.189 21.325,48.979 21.26,48.781C21.227,48.679 21.036,48.45 21.137,48.484C22.552,48.962 23.996,50.21 24.907,51.383C25.208,51.771 25.445,52.205 25.622,52.662C25.679,52.811 25.73,52.961 25.776,53.113C25.8,53.194 25.812,53.434 25.844,53.357C26.493,51.815 27.056,50.369 28.344,49.237C30.003,47.78 32.182,47.168 33.789,45.619C34.718,44.724 35.478,43.737 36.056,42.585C36.251,42.197 36.442,41.805 36.58,41.393C36.625,41.259 36.665,41.122 36.697,40.984C36.715,40.903 36.671,40.699 36.744,40.739C37.918,41.368 38.986,42.649 39.964,43.531C42.253,45.597 44.571,48.165 45.515,51.152C45.875,50.635 46.284,50.154 46.731,49.71C51.271,45.206 58.475,46.952 64.202,46.904C67.226,46.878 70.401,46.622 73.367,46.04C75.043,45.712 76.681,45.179 78.325,44.719C80.847,44.012 83.215,43.365 85.287,41.695C86.921,40.378 88.244,38.568 88.874,36.558C89.104,35.821 89.278,35.065 89.442,34.312C89.461,34.223 89.512,33.608 89.575,33.58C90.542,33.15 91.881,34.471 92.369,35.122C92.818,35.721 93.196,36.375 93.604,37.001C94.249,37.99 94.842,39.009 95.439,40.027C96.399,41.666 96.887,43.374 97.194,45.241C97.311,45.953 97.402,46.689 97.452,47.432C98.66,45.028 100.811,43.318 103.309,42.034C108.482,39.376 114.453,38.968 119.81,36.786C122.367,35.744 125.06,34.229 126.243,31.593C126.711,30.551 126.926,29.37 126.971,28.233C126.978,28.052 126.972,26.977 126.972,26.977C126.972,26.977 130.806,28.852 133.229,31.399C135.191,33.461 136.634,36.041 137.657,38.721C138.297,40.399 138.826,42.387 138.874,44.203C138.885,44.611 138.684,45.014 138.693,45.409C138.693,45.41 138.862,45.226 138.867,45.22C138.989,45.086 139.109,44.951 139.231,44.817C139.604,44.408 140.007,44.035 140.431,43.68C141.945,42.412 143.641,41.6 145.241,40.482C145.746,40.129 146.259,39.785 146.618,39.283C146.739,39.115 147.011,38.389 147.011,38.389C148.562,39.984 148.255,42.749 148.299,44.576C148.328,45.769 148.834,46.922 149.02,48.106L149.057,48.074C149.92,47.327 150.797,46.58 151.856,46.125C154.654,44.924 157.621,45.322 160.511,45.894C164.389,46.662 168.495,47.913 172.481,47.773C174.303,47.709 176.509,47.19 177.967,46.019C178.473,45.613 178.868,45.1 179.146,44.515C179.233,44.331 179.307,44.14 179.368,43.945C179.402,43.837 179.358,43.57 179.46,43.618C180.439,44.081 181.087,45.318 181.527,46.25C182.202,47.677 182.87,49.623 182.994,51.502C184.287,50.281 185.717,49.38 187.603,48.75C189.336,48.171 191.24,47.676 192.83,46.75C193.323,46.462 193.73,46.098 194.107,45.672C194.184,45.584 194.442,45.129 194.543,45.11C195.441,44.941 196.369,46.048 196.865,46.638C197.848,47.807 198.664,49.013 199.122,50.444C199.524,49.833 199.973,49.253 200.491,48.747C202.642,46.65 205.454,45.385 207.575,43.217C208.286,42.49 208.994,41.702 209.559,40.854C209.667,40.693 209.956,39.893 210.204,39.865C212.261,39.635 213.978,41.744 215.137,43.132C217.814,46.338 219.269,50.386 219.582,54.518C219.653,55.459 219.78,56.473 219.712,57.45C220.711,56.124 221.941,54.988 223.352,54.098C225.532,52.723 228.028,51.861 230.161,50.41C230.933,49.884 231.654,49.282 232.335,48.644C232.898,48.117 233.131,47.511 233.978,47.797C236.375,48.607 237.244,52.193 237.379,54.381C237.428,55.17 237.361,55.963 237.16,56.728C237.096,56.974 237.021,57.217 236.934,57.456C236.885,57.59 236.644,57.906 236.777,57.854C238.25,57.275 239.724,56.936 241.325,57.136C243.462,57.403 245.412,58.425 247.579,58.632C249.132,58.78 250.676,58.714 252.13,58.1C252.607,57.898 253.055,57.655 253.466,57.338C253.62,57.219 253.768,57.093 253.911,56.962C253.917,56.957 254.087,56.795 254.088,56.796C254.911,57.566 254.927,59.327 254.852,60.355C254.799,61.085 254.673,61.823 254.511,62.537C254.305,63.449 253.974,64.301 253.47,65.092C253.18,65.548 252.796,66.612 246.109,66.615C243.826,66.615 231.311,66.81 229.31,66.813Z" style="fill:#ffd146;"/>
        </g>
        <g transform="matrix(1,0,0,1.04505,0,-0.911707)">
            <path d="M98.139,44.599C97.806,42.786 97.283,41.113 96.337,39.5C95.732,38.468 95.131,37.435 94.477,36.432C94.056,35.787 93.665,35.114 93.203,34.497C92.847,34.023 92.114,33.261 91.335,32.835C90.598,32.433 89.818,32.332 89.152,32.628C88.994,32.698 88.758,32.843 88.607,33.176C88.543,33.318 88.437,33.996 88.419,34.113C88.264,34.828 88.098,35.547 87.879,36.246C87.311,38.062 86.11,39.694 84.634,40.884C82.675,42.462 80.427,43.048 78.044,43.715C76.427,44.168 74.816,44.695 73.167,45.018C70.262,45.588 67.154,45.837 64.194,45.862C61.319,45.886 58.073,45.462 54.977,45.595C51.63,45.739 48.46,46.527 45.998,48.971C45.939,49.028 45.882,49.086 45.825,49.145C44.621,46.695 42.64,44.543 40.662,42.758C39.627,41.824 38.479,40.487 37.236,39.821C36.745,39.557 36.379,39.697 36.109,39.891C35.997,39.972 35.893,40.079 35.81,40.222C35.742,40.339 35.66,40.917 35.66,40.917C35.66,40.917 35.671,40.794 35.682,40.749C35.657,40.855 35.626,40.96 35.592,41.064C35.47,41.429 35.298,41.775 35.125,42.118C34.601,43.163 33.909,44.057 33.066,44.869C32.329,45.579 31.455,46.067 30.581,46.552C29.563,47.117 28.543,47.676 27.657,48.454C26.847,49.166 26.288,49.984 25.825,50.871C25.794,50.828 25.762,50.786 25.73,50.744C24.704,49.423 23.064,48.035 21.47,47.497C21.021,47.346 20.731,47.494 20.564,47.597C20.285,47.77 20.085,48.037 20.067,48.448C20.063,48.541 20.07,48.655 20.107,48.786C20.125,48.849 20.232,49.057 20.287,49.161C20.313,49.252 20.331,49.347 20.335,49.441C20.355,49.9 20.14,50.333 19.975,50.751C19.176,52.779 18.243,54.72 18.341,56.966C18.384,57.95 18.586,58.936 18.886,59.872C20.511,64.932 24.958,67.144 29.859,67.845C29.908,67.851 29.958,67.855 30.007,67.855L229.31,67.855C229.311,67.855 229.311,67.855 229.312,67.855C231.312,67.852 243.827,67.657 246.11,67.656C253.653,67.654 254.021,66.166 254.349,65.652C254.918,64.758 255.294,63.798 255.527,62.767C255.701,62.002 255.834,61.213 255.891,60.431C255.942,59.73 255.949,58.731 255.75,57.855C255.584,57.122 255.268,56.473 254.799,56.035C254.779,56.017 254.056,55.419 253.383,56.028C253.355,56.054 253.215,56.187 253.211,56.191C253.088,56.303 252.961,56.411 252.829,56.513C252.49,56.775 252.119,56.973 251.725,57.14C250.432,57.686 249.058,57.727 247.678,57.595C245.521,57.389 243.581,56.368 241.454,56.102C240.368,55.967 239.334,56.048 238.32,56.279C238.429,55.632 238.459,54.974 238.419,54.317C238.33,52.877 237.941,50.887 237.084,49.332C236.433,48.149 235.512,47.216 234.311,46.81C233.299,46.468 232.727,46.767 232.189,47.287C232.012,47.457 231.844,47.677 231.623,47.883C230.981,48.485 230.303,49.054 229.575,49.549C227.452,50.993 224.966,51.849 222.796,53.217C222.031,53.7 221.315,54.25 220.655,54.86C220.643,54.719 220.631,54.578 220.621,54.44C220.292,50.093 218.753,45.837 215.936,42.464C215.185,41.564 214.204,40.393 213.068,39.646C212.16,39.048 211.155,38.71 210.088,38.83C209.838,38.858 209.541,38.978 209.283,39.261C209.066,39.498 208.725,40.198 208.675,40.302C208.148,41.088 207.49,41.815 206.83,42.489C204.715,44.65 201.909,45.91 199.764,48.002C199.63,48.133 199.499,48.268 199.373,48.408C198.903,47.547 198.319,46.749 197.662,45.968C197.315,45.555 196.777,44.934 196.183,44.538C195.602,44.151 194.965,43.97 194.351,44.086C194.193,44.116 193.938,44.206 193.704,44.457C193.589,44.58 193.355,44.929 193.301,45.009C193.006,45.34 192.69,45.625 192.305,45.85C190.776,46.741 188.94,47.205 187.273,47.762C185.915,48.215 184.776,48.799 183.754,49.527C183.452,48.16 182.964,46.851 182.469,45.804C181.937,44.678 181.088,43.235 179.905,42.676C179.672,42.567 179.467,42.558 179.296,42.58C179.039,42.614 178.818,42.728 178.638,42.928C178.52,43.061 178.342,43.784 178.342,43.784C178.342,43.784 178.361,43.673 178.374,43.633C178.327,43.782 178.272,43.928 178.205,44.068C177.994,44.511 177.698,44.9 177.315,45.207C176.023,46.245 174.059,46.675 172.444,46.732C168.537,46.87 164.515,45.625 160.713,44.872C157.618,44.259 154.441,43.881 151.445,45.168C150.792,45.448 150.199,45.826 149.638,46.249C149.487,45.687 149.355,45.124 149.341,44.551C149.313,43.406 149.407,41.909 149.145,40.535C148.939,39.454 148.522,38.448 147.758,37.663C147.509,37.407 147.147,37.296 146.798,37.369C146.449,37.442 146.161,37.689 146.036,38.023L145.75,38.705C145.461,39.095 145.042,39.35 144.644,39.628C143.035,40.753 141.334,41.577 139.807,42.844C139.607,41.306 139.156,39.729 138.63,38.349C137.558,35.541 136.039,32.842 133.984,30.681C131.445,28.011 127.43,26.041 127.43,26.041C127.106,25.883 126.723,25.903 126.418,26.095C126.113,26.287 125.928,26.623 125.93,26.983C125.93,26.983 125.937,28.018 125.93,28.192C125.891,29.198 125.707,30.244 125.293,31.166C124.22,33.556 121.735,34.877 119.417,35.821C114.032,38.015 108.033,38.435 102.833,41.107C101.033,42.032 99.408,43.172 98.139,44.599ZM148.972,49.147L149.02,49.148L149.739,48.861C149.739,48.861 149.057,49.116 149.057,49.116L149.739,48.861C150.521,48.184 151.307,47.494 152.267,47.082C154.866,45.966 157.624,46.384 160.308,46.916C164.263,47.699 168.453,48.957 172.518,48.814C174.547,48.743 176.995,48.136 178.62,46.831C179.131,46.421 179.551,45.924 179.876,45.362C180.169,45.787 180.392,46.286 180.585,46.695C181.212,48.02 181.839,49.826 181.955,51.571C181.981,51.974 182.238,52.325 182.614,52.472C182.989,52.62 183.416,52.537 183.71,52.26C184.894,51.141 186.204,50.315 187.933,49.738C189.732,49.137 191.704,48.612 193.354,47.65C193.946,47.305 194.435,46.873 194.887,46.362C194.903,46.343 194.938,46.297 194.978,46.24C195.054,46.286 195.127,46.34 195.198,46.398C195.549,46.683 195.853,47.054 196.067,47.308C196.961,48.371 197.713,49.461 198.13,50.762C198.253,51.144 198.584,51.422 198.981,51.476C199.379,51.531 199.772,51.352 199.993,51.017C200.353,50.468 200.754,49.947 201.218,49.493C203.375,47.39 206.192,46.119 208.319,43.946C209.075,43.173 209.825,42.334 210.426,41.432C210.47,41.366 210.606,41.101 210.708,40.898C211.306,40.957 211.851,41.296 212.352,41.702C213.129,42.33 213.796,43.151 214.337,43.799C216.875,46.838 218.247,50.68 218.543,54.597C218.611,55.49 218.738,56.451 218.673,57.377C218.641,57.837 218.915,58.264 219.347,58.426C219.779,58.587 220.266,58.445 220.544,58.077C221.467,56.852 222.604,55.801 223.908,54.979C226.098,53.598 228.604,52.729 230.747,51.271C231.564,50.715 232.327,50.079 233.047,49.404C233.182,49.278 233.302,49.148 233.414,49.023C233.48,48.95 233.584,48.845 233.644,48.784C234.362,49.027 234.87,49.63 235.26,50.337C235.965,51.617 236.266,53.259 236.339,54.445C236.381,55.124 236.325,55.805 236.153,56.463C236.1,56.666 236.039,56.867 235.968,57.064C235.918,57.16 235.75,57.49 235.727,57.581C235.695,57.715 235.691,57.832 235.699,57.927C235.732,58.345 235.947,58.607 236.239,58.769C236.411,58.864 236.711,58.999 237.157,58.824C238.467,58.31 239.773,57.992 241.196,58.17C243.343,58.438 245.303,59.461 247.48,59.669C249.206,59.834 250.919,59.742 252.535,59.059C252.959,58.88 253.361,58.672 253.74,58.421C253.868,59.062 253.85,59.774 253.814,60.279C253.764,60.958 253.646,61.643 253.495,62.306C253.315,63.101 253.03,63.844 252.591,64.533C252.478,64.71 252.308,64.964 251.28,65.192C250.269,65.416 248.672,65.572 246.109,65.573C243.826,65.574 231.311,65.769 229.309,65.772L229.309,65.772L30.082,65.772C26.005,65.175 22.223,63.448 20.87,59.235C20.626,58.474 20.457,57.675 20.422,56.875C20.337,54.93 21.222,53.271 21.914,51.515C22.068,51.121 22.222,50.713 22.318,50.294C23,50.796 23.619,51.423 24.085,52.022C24.323,52.33 24.51,52.675 24.65,53.038C24.694,53.153 24.734,53.269 24.77,53.387C24.79,53.484 24.838,53.706 24.861,53.761C24.911,53.882 24.973,53.972 25.028,54.037C25.362,54.437 25.758,54.479 26.126,54.371C26.291,54.323 26.612,54.219 26.804,53.761C27.39,52.368 27.867,51.042 29.032,50.02C29.805,49.341 30.703,48.866 31.592,48.373C32.623,47.801 33.642,47.207 34.512,46.369C35.527,45.391 36.356,44.311 36.987,43.052C37.095,42.838 37.201,42.623 37.299,42.404C37.995,43.007 38.646,43.745 39.266,44.305C41.423,46.251 43.632,48.651 44.522,51.466C44.642,51.844 44.966,52.122 45.358,52.182C45.751,52.242 46.143,52.073 46.37,51.747C46.694,51.282 47.062,50.849 47.465,50.45C49.542,48.389 52.244,47.798 55.066,47.677C58.139,47.545 61.359,47.969 64.211,47.945C67.298,47.919 70.539,47.656 73.567,47.063C75.271,46.728 76.936,46.189 78.606,45.722C81.267,44.976 83.754,44.269 85.941,42.506C87.733,41.062 89.177,39.073 89.868,36.869C90.089,36.162 90.262,35.437 90.421,34.712C90.467,34.74 90.513,34.771 90.558,34.802C90.973,35.089 91.34,35.486 91.536,35.747C91.971,36.328 92.336,36.963 92.732,37.57C93.368,38.545 93.952,39.55 94.54,40.554C95.434,42.08 95.88,43.672 96.166,45.41C96.278,46.089 96.365,46.792 96.412,47.501C96.443,47.97 96.784,48.36 97.245,48.453C97.705,48.546 98.171,48.32 98.382,47.9C99.493,45.69 101.489,44.14 103.785,42.96C108.931,40.316 114.874,39.922 120.203,37.751C122.998,36.612 125.9,34.901 127.194,32.019C127.655,30.992 127.901,29.845 127.986,28.717C129.259,29.464 131.104,30.677 132.474,32.117C134.342,34.081 135.71,36.54 136.683,39.092C137.284,40.665 137.787,42.528 137.833,44.231C137.837,44.389 137.776,44.544 137.74,44.7C137.684,44.946 137.646,45.191 137.652,45.433C137.653,45.482 138.573,47.043 139.451,46.124L140.001,45.519C140.343,45.144 140.712,44.803 141.1,44.478C142.59,43.23 144.263,42.437 145.838,41.335C146.239,41.055 146.638,40.772 146.987,40.437C147.086,40.781 147.145,41.144 147.185,41.509C147.304,42.597 147.236,43.713 147.258,44.601C147.288,45.84 147.798,47.039 147.991,48.268C148.068,48.759 148.48,49.124 148.972,49.147ZM149.054,49.108L149.054,49.108L149.057,49.116L149.054,49.108Z" style="fill:#ffc000;"/>
        </g>
        <path d="M264.717,60.447C264.433,61.199 264.037,62 263.416,62.531C262.979,62.905 262.928,63.563 263.302,64C263.675,64.437 264.334,64.488 264.77,64.114C265.653,63.359 266.263,62.252 266.666,61.183C266.869,60.645 266.597,60.043 266.06,59.84C265.522,59.637 264.92,59.909 264.717,60.447ZM273.978,55.267C275.103,56.673 275.758,58.418 275.012,60.16C274.786,60.688 275.031,61.301 275.559,61.528C276.088,61.754 276.701,61.509 276.927,60.98C277.992,58.495 277.21,55.973 275.605,53.966C275.246,53.517 274.59,53.444 274.141,53.803C273.692,54.162 273.619,54.818 273.978,55.267ZM211.691,47.472C213.304,49.913 214.646,53.79 213.758,56.689C213.59,57.239 213.9,57.822 214.449,57.99C214.999,58.159 215.582,57.849 215.75,57.299C216.804,53.857 215.345,49.223 213.43,46.324C213.113,45.844 212.466,45.712 211.987,46.029C211.507,46.345 211.375,46.992 211.691,47.472ZM37.995,48.535C38.6,49.354 39.231,50.21 39.682,51.128C39.936,51.644 40.561,51.857 41.077,51.603C41.593,51.35 41.806,50.725 41.552,50.209C41.046,49.18 40.349,48.215 39.67,47.297C39.328,46.834 38.675,46.737 38.213,47.079C37.751,47.42 37.653,48.073 37.995,48.535ZM236.552,42.501C237.909,44.846 238.988,47.269 238.931,50.034C238.919,50.608 239.376,51.085 239.951,51.096C240.526,51.108 241.002,50.651 241.014,50.076C241.079,46.92 239.904,44.135 238.355,41.458C238.067,40.96 237.43,40.79 236.932,41.078C236.434,41.366 236.264,42.004 236.552,42.501ZM91.371,41.944C92.253,43.495 92.78,45.353 92.784,47.143C92.785,47.718 93.253,48.184 93.828,48.183C94.403,48.181 94.869,47.714 94.867,47.139C94.863,44.996 94.238,42.771 93.182,40.915C92.898,40.415 92.262,40.24 91.762,40.524C91.262,40.808 91.087,41.444 91.371,41.944ZM130.439,34.639C132.288,37.095 133.608,39.49 134.028,42.557C134.106,43.127 134.632,43.526 135.202,43.448C135.771,43.37 136.17,42.844 136.092,42.274C135.621,38.837 134.176,36.137 132.103,33.385C131.757,32.926 131.103,32.834 130.644,33.18C130.185,33.526 130.093,34.18 130.439,34.639ZM38.962,34.655C40.968,36.433 42.61,38.639 43.317,41.247C43.468,41.802 44.04,42.131 44.595,41.98C45.15,41.83 45.479,41.257 45.328,40.702C44.514,37.7 42.652,35.142 40.343,33.096C39.913,32.715 39.254,32.754 38.873,33.185C38.492,33.615 38.531,34.274 38.962,34.655ZM240.745,30.194C242.615,32.05 244.327,34.755 244.847,37.346C244.96,37.909 245.51,38.275 246.074,38.162C246.637,38.049 247.003,37.499 246.89,36.935C246.293,33.964 244.358,30.845 242.212,28.716C241.804,28.311 241.144,28.313 240.739,28.721C240.334,29.129 240.337,29.79 240.745,30.194ZM48.189,32.968C48.717,33.868 49.222,34.882 49.495,35.899C49.645,36.454 50.217,36.783 50.772,36.634C51.327,36.484 51.657,35.912 51.507,35.357C51.186,34.165 50.606,32.971 49.986,31.914C49.696,31.418 49.057,31.251 48.561,31.542C48.065,31.833 47.898,32.472 48.189,32.968ZM225.536,33.905C224.387,30.664 221.911,28.068 220.766,24.848C220.574,24.306 219.977,24.023 219.436,24.215C218.894,24.408 218.611,25.004 218.803,25.546C219.948,28.765 222.424,31.361 223.573,34.602C223.765,35.144 224.361,35.427 224.903,35.235C225.445,35.043 225.728,34.447 225.536,33.905ZM174.865,21.89C175.924,23.414 177.1,25.323 177.023,27.251C177,27.826 177.447,28.311 178.022,28.334C178.596,28.357 179.081,27.909 179.104,27.335C179.199,24.966 177.876,22.574 176.576,20.702C176.248,20.229 175.599,20.112 175.126,20.44C174.654,20.768 174.537,21.418 174.865,21.89ZM138.159,21.727C139.45,22.676 140.769,23.82 141.147,25.448C141.277,26.008 141.837,26.357 142.397,26.227C142.957,26.097 143.306,25.537 143.176,24.977C142.684,22.857 141.074,21.283 139.392,20.048C138.929,19.707 138.276,19.807 137.936,20.271C137.596,20.734 137.695,21.386 138.159,21.727ZM45.597,20.187C44.948,21.746 44.538,23.265 44.56,24.953C44.567,25.528 45.04,25.989 45.615,25.982C46.189,25.974 46.65,25.501 46.643,24.927C46.625,23.53 46.984,22.277 47.521,20.987C47.742,20.457 47.49,19.846 46.959,19.626C46.428,19.405 45.818,19.656 45.597,20.187Z" style="fill:#fff;fill-opacity:0.25;"/>
    </g>
</svg>
