<?xml version="1.0" encoding="UTF-8" standalone="no"?>
<!DOCTYPE svg PUBLIC "-//W3C//DTD SVG 1.1//EN" "http://www.w3.org/Graphics/SVG/1.1/DTD/svg11.dtd">
<svg width="100%" height="100%" viewBox="0 0 280 62" version="1.1" xmlns="http://www.w3.org/2000/svg" xmlns:xlink="http://www.w3.org/1999/xlink" xml:space="preserve" xmlns:serif="http://www.serif.com/" style="fill-rule:evenodd;clip-rule:evenodd;stroke-miterlimit:10;">
    <g id="banner_27" transform="matrix(1,0,0,1,0,-8.7)">
        <path d="M280,47.751L-0,47.751L-0,65.286C-0,67.888 2.112,70 4.714,70L275.286,70C277.888,70 280,67.888 280,65.286L280,47.751Z" style="fill:#001361;"/>
        <g transform="matrix(-0.893232,-1.09389e-16,8.74808e-17,-0.714335,285.834,65.8968)">
            <path d="M320,8.028C320,5.159 318.138,2.83 315.844,2.83L10.688,2.83C8.394,2.83 6.532,5.159 6.532,8.028L6.532,74.803C6.532,77.671 8.394,80 10.688,80L315.844,80C318.138,80 320,77.671 320,74.803L320,8.028Z" style="fill:#051f8a;"/>
        </g>
        <g transform="matrix(0.587062,0,0,0.587062,-15.0071,25.476)">
            <g transform="matrix(0.23313,0,0,0.23313,-20.7964,-258.193)">
                <circle cx="746.095" cy="1037.81" r="12.94" style="fill:#496395;"/>
            </g>
            <g transform="matrix(0.23313,0,0,0.23313,117.936,-185.052)">
                <circle cx="746.095" cy="1037.81" r="12.94" style="fill:#496395;"/>
            </g>
            <g transform="matrix(0.141736,0,0,0.141736,-71.8257,-167.613)">
                <circle cx="746.095" cy="1037.81" r="12.94" style="fill:#4e5dc0;"/>
            </g>
            <g transform="matrix(0.235853,0,0,0.235853,-91.6022,-266.217)">
                <circle cx="746.095" cy="1037.81" r="12.94" style="fill:#4e5dc0;"/>
            </g>
            <g transform="matrix(0.173222,0,0,0.173222,77.0313,-187.484)">
                <circle cx="746.095" cy="1037.81" r="12.94" style="fill:#4e5dc0;"/>
            </g>
            <g transform="matrix(0.224651,0,0,0.224651,52.3275,-254.736)">
                <circle cx="746.095" cy="1037.81" r="12.94" style="fill:#4e5dc0;"/>
            </g>
            <g transform="matrix(0.148408,0,0,0.148408,-39.5887,-100.371)">
                <circle cx="746.095" cy="1037.81" r="12.94" style="fill:#496395;"/>
            </g>
            <g transform="matrix(0.148408,0,0,0.148408,-78.7243,-163.652)">
                <circle cx="746.095" cy="1037.81" r="12.94" style="fill:#496395;"/>
            </g>
            <g transform="matrix(0.148408,0,0,0.148408,-6.06459,-148.454)">
                <circle cx="746.095" cy="1037.81" r="12.94" style="fill:#457bcb;"/>
            </g>
            <g transform="matrix(0.217282,0,0,0.217282,-50.155,-213.689)">
                <circle cx="746.095" cy="1037.81" r="12.94" style="fill:#457bcb;"/>
            </g>
            <g transform="matrix(0.217282,0,0,0.217282,45.2582,-169.333)">
                <circle cx="746.095" cy="1037.81" r="12.94" style="fill:#457bcb;"/>
            </g>
            <g transform="matrix(0.108641,0,0,0.108641,134.548,-60.0797)">
                <circle cx="746.095" cy="1037.81" r="12.94" style="fill:#457bcb;"/>
            </g>
            <g transform="matrix(0.217282,0,0,0.217282,-99.6196,-222.743)">
                <circle cx="746.095" cy="1037.81" r="12.94" style="fill:#457bcb;"/>
            </g>
            <g transform="matrix(0.108641,0,0,0.108641,60.7495,-77.7264)">
                <circle cx="746.095" cy="1037.81" r="12.94" style="fill:#457bcb;"/>
            </g>
            <g transform="matrix(0.108641,0,0,0.108641,174.169,-77.9135)">
                <circle cx="746.095" cy="1037.81" r="12.94" style="fill:#457bcb;"/>
            </g>
            <g transform="matrix(0.108641,0,0,0.108641,382.649,-55.6413)">
                <circle cx="746.095" cy="1037.81" r="12.94" style="fill:#457bcb;"/>
            </g>
            <g transform="matrix(0.192817,0,0,0.192817,311.064,-146.656)">
                <circle cx="746.095" cy="1037.81" r="12.94" style="fill:#457bcb;"/>
            </g>
            <g transform="matrix(0.192817,0,0,0.192817,353.08,-173.647)">
                <circle cx="746.095" cy="1037.81" r="12.94" style="fill:#457bcb;"/>
            </g>
            <g transform="matrix(0.108641,0,0,0.108641,314.204,-87.38)">
                <circle cx="746.095" cy="1037.81" r="12.94" style="fill:#457bcb;"/>
            </g>
            <g transform="matrix(0.195497,0,0,0.195497,235.255,-150.421)">
                <circle cx="746.095" cy="1037.81" r="12.94" style="fill:#457bcb;"/>
            </g>
            <g transform="matrix(0.0977485,0,0,0.0977485,301.811,-45.1823)">
                <circle cx="746.095" cy="1037.81" r="12.94" style="fill:#457bcb;"/>
            </g>
            <g transform="matrix(0.255275,0,0,0.255275,148.639,-276.481)">
                <circle cx="746.095" cy="1037.81" r="12.94" style="fill:#7965ae;"/>
            </g>
            <g transform="matrix(0.13197,0,0,0.13197,326.714,-152.527)">
                <circle cx="746.095" cy="1037.81" r="12.94" style="fill:#7965ae;"/>
            </g>
            <g transform="matrix(0.108536,0,0,0.108536,318.102,-113.105)">
                <circle cx="746.095" cy="1037.81" r="12.94" style="fill:#7965ae;"/>
            </g>
            <g transform="matrix(0.111472,0,0,0.111472,59.4252,-57.2204)">
                <circle cx="746.095" cy="1037.81" r="12.94" style="fill:#7965ae;"/>
            </g>
        </g>
        <g transform="matrix(0.153868,0,0,0.153868,-47.913,-110.67)">
            <g opacity="0.5">
                <g transform="matrix(6.49907,0,0,6.49907,311.39,719.253)">
                    <path d="M38.061,8.75C24.05,11.591 10.925,18.085 0.249,27.77L0.2,11.26C0.7,9.8 2.084,8.75 3.713,8.75L38.061,8.75Z" style="fill:url(#_Linear1);"/>
                </g>
                <g transform="matrix(6.49907,0,0,6.49907,311.39,719.253)">
                    <path d="M105.641,63.875L162.557,63.875L162.869,63.774C171.09,61.106 179.774,57.831 188.575,58.556C193.875,58.993 198.886,61.095 203.456,63.875L276.287,63.875C278.336,63.875 280,62.211 280,60.162L280,19.732C263.285,36.044 248.144,47.286 235.119,51.71C224.846,55.199 215.89,54.447 208.516,48.596C197.159,39.197 183.369,32.067 170.015,35.206C155.279,38.669 144.432,52.973 127.919,47.851C116.216,44.221 109.943,32.28 101.076,24.681C85.774,11.565 66.571,8.923 47.27,13.688C33.814,17.01 21.149,22.764 9.202,29.706C6.142,31.484 3.146,33.469 0.104,35.38L0.184,61.131C7.034,57.729 13.383,54.064 18.048,51.83C35.383,43.53 57.951,43.829 75.855,49.97C85.99,53.446 95.635,59.313 105.641,63.875Z" style="fill:url(#_Linear2);"/>
                </g>
                <g transform="matrix(6.49907,0,0,6.49907,311.39,719.253)">
                    <path d="M94.588,8.75L271.791,8.75C267.377,12.505 262.776,15.934 258.227,19.02C253.636,22.135 248.748,24.784 243.571,26.787C211.909,39.031 202.984,13.056 176.285,9.288C150.648,5.67 124.559,27.71 100.002,12.834C98.139,11.706 96.273,10.329 94.588,8.75Z" style="fill:url(#_Linear3);"/>
                </g>
            </g>
        </g>
        <g transform="matrix(1.05564,0,0,1.05564,6.32546e-15,-3.55396)">
            <path d="M3.703,63.875L3.648,63.874L3.604,63.873L3.557,63.872L3.521,63.87L3.485,63.868L3.436,63.865L3.373,63.86L3.33,63.855L3.303,63.853C1.446,63.648 -0,62.073 -0,60.162L-0,30.173L22.385,21.149C27.544,19.069 34.943,22.351 37.023,27.509L38.532,31.253L38.728,31.737L38.727,31.737L40.519,36.183L45.785,34.06C49.489,32.597 55.028,36.794 56.38,40.144L59.772,48.58C61.216,52.159 60.528,58.758 55.365,60.84L51.102,62.559L51.606,63.685C51.632,63.748 51.657,63.812 51.681,63.875L3.713,63.875L3.703,63.875ZM49.445,43.107L44.217,45.215L46.961,52.161C49.511,50.311 50.038,45.438 49.445,43.107Z" style="fill:#000332;fill-opacity:0.3;"/>
        </g>
        <g transform="matrix(0.320014,-0.17612,0.17612,0.320014,-37.9472,78.4585)">
            <g transform="matrix(2.39841,1.31997,-1.31997,2.39841,194.576,-138.087)">
                <path d="M-0,55.624L-0,60.162C-0,62.211 1.664,63.875 3.713,63.875L4.192,63.875L50.747,45.107L47.3,36.556L-0,55.624Z" style="fill:#7ca1d5;"/>
            </g>
            <g transform="matrix(2.39841,1.31997,-1.31997,2.39841,194.576,-138.087)">
                <path d="M51.68,63.875L49.011,63.875L51.307,62.95L51.68,63.875Z" style="fill:url(#_Linear4);fill-rule:nonzero;"/>
            </g>
            <g transform="matrix(2.39841,1.31997,-1.31997,2.39841,194.576,-138.087)">
                <path d="M-0,31.569L-0,60.162C-0,62.211 1.664,63.875 3.713,63.875L51.681,63.875C51.657,63.812 51.632,63.748 51.606,63.685L37.023,27.509C34.943,22.351 29.066,19.851 23.907,21.931L-0,31.569Z" style="fill:#d69b5a;"/>
            </g>
            <g transform="matrix(2.39841,1.31997,-1.31997,2.39841,194.576,-138.087)">
                <path d="M-0,43.537L-0,47.709C1.404,47.69 2.494,48.31 3.688,48.665C5.473,49.197 7.395,49.455 9.993,48.409C12.591,47.363 13.797,45.849 14.716,44.232C15.587,42.7 15.94,40.929 18.397,39.932C20.848,38.937 22.329,39.97 24.017,40.471C25.803,41.002 27.724,41.26 30.324,40.213C32.924,39.166 34.13,37.652 35.049,36.035C35.919,34.504 36.272,32.733 38.728,31.737L37.161,27.876C34.568,28.928 33.365,30.444 32.448,32.061C31.58,33.591 31.226,35.358 28.768,36.348C26.308,37.339 24.823,36.304 23.135,35.803C21.348,35.273 19.427,35.017 16.83,36.071C14.238,37.123 13.034,38.639 12.117,40.257C11.248,41.787 10.894,43.555 8.437,44.544C5.979,45.534 4.495,44.498 2.807,43.997C1.926,43.735 1.012,43.541 -0,43.537Z" style="fill:#cd8029;"/>
            </g>
            <g transform="matrix(2.39841,1.31997,-1.31997,2.39841,194.576,-138.087)">
                <path d="M43.53,63.875L48.173,63.875C48.691,63.001 49.408,62.19 50.796,61.627L49.229,57.766C46.636,58.819 45.432,60.336 44.513,61.953C44.159,62.577 43.89,63.241 43.53,63.875Z" style="fill:#cd8029;"/>
            </g>
            <g transform="matrix(2.39841,1.31997,-1.31997,2.39841,194.576,-138.087)">
                <path d="M2.585,63.7C2.941,63.814 3.32,63.875 3.713,63.875L9.907,63.875C10.107,63.581 10.289,63.281 10.462,62.977C11.331,61.446 11.686,59.679 14.143,58.688C16.599,57.697 18.082,58.73 19.769,59.231C21.555,59.761 23.475,60.017 26.072,58.965C28.666,57.914 29.87,56.399 30.789,54.783C31.658,53.253 32.013,51.485 34.47,50.494C36.926,49.503 38.408,50.534 40.096,51.035C41.88,51.564 43.8,51.82 46.398,50.772L44.839,46.908C42.383,47.899 40.9,46.868 39.213,46.368C37.429,45.838 35.509,45.582 32.911,46.63C30.315,47.678 29.109,49.191 28.19,50.808C27.32,52.338 26.965,54.108 24.508,55.103C22.055,56.096 20.574,55.065 18.887,54.563C17.102,54.033 15.182,53.776 12.584,54.824C9.987,55.872 8.781,57.385 7.862,59.002C6.992,60.533 6.638,62.304 4.181,63.3C3.6,63.536 3.073,63.658 2.585,63.7Z" style="fill:#bc6234;"/>
            </g>
            <g transform="matrix(2.39841,1.31997,-1.31997,2.39841,194.576,-138.087)">
                <path d="M18.804,63.875L41.512,63.875L54.538,58.624C59.701,56.541 61.216,52.159 59.772,48.58L56.38,40.144C55.028,36.794 51.482,34.639 46.64,36.182L41.375,38.304L42.074,40.037L43.819,39.336C45.764,38.553 47.795,39.045 48.357,40.437L50.087,44.733C51.34,47.834 48.838,51.767 44.498,53.517L18.804,63.875Z" style="fill:#9dc6ea;fill-rule:nonzero;"/>
            </g>
            <g transform="matrix(2.39841,1.31997,-1.31997,2.39841,194.576,-138.087)">
                <path d="M58.316,61.859L60.557,60.325C63.447,58.359 65.033,54.952 64.679,51.472L64.367,48.42L62.187,48.643L62.499,51.694C62.772,54.375 61.55,56.999 59.322,58.515L57.078,60.05L58.316,61.859Z" style="fill:#9dc6ea;"/>
            </g>
        </g>
        <g transform="matrix(1.10084,0,0,1.10084,-25.8216,-0.882369)">
            <path d="M244.621,35.85L238.032,13.467C237.45,11.489 238.583,9.411 240.561,8.829L240.828,8.75L268.754,8.75L274.171,27.151C274.75,29.117 273.608,31.211 271.643,31.789L249.26,38.378C247.294,38.957 245.2,37.816 244.621,35.85Z" style="fill:#000332;fill-opacity:0.3;fill-rule:nonzero;"/>
        </g>
        <g id="meteor" transform="matrix(0.0984996,-0.0289963,0.0289963,0.0984996,235.672,5.45096)">
            <g transform="matrix(9.34269,2.7503,-2.7503,9.34269,-2186.82,-699.097)">
                <path d="M271.643,31.789L249.26,38.378C247.294,38.957 245.2,37.816 244.621,35.85L243.187,30.976L272.736,22.277L274.171,27.151C274.75,29.117 273.608,31.211 271.643,31.789Z" style="fill:url(#_Linear5);fill-rule:nonzero;"/>
            </g>
            <g transform="matrix(9.34269,2.7503,-2.7503,9.34269,-2186.82,-699.097)">
                <path d="M240.828,8.75L240.561,8.829C238.583,9.411 237.45,11.489 238.032,13.467L243.27,31.259C243.852,33.237 245.93,34.37 247.908,33.787L270.291,27.198C272.269,26.616 273.402,24.538 272.82,22.56L268.754,8.75L240.828,8.75Z" style="fill:#c68c3c;"/>
            </g>
            <g transform="matrix(9.34269,2.7503,-2.7503,9.34269,-2186.82,-699.097)">
                <path d="M260.927,8.75L265.132,8.75C265.411,9.019 265.626,9.361 265.742,9.756L266.922,13.764L257.169,16.635L255.989,12.627C255.629,11.403 256.34,10.1 257.563,9.74L260.927,8.75Z" style="fill:url(#_Linear6);fill-rule:nonzero;"/>
            </g>
            <g transform="matrix(9.34269,2.7503,-2.7503,9.34269,-2186.82,-699.097)">
                <path d="M259.157,8.75L257.422,9.261C255.935,9.698 255.072,11.282 255.51,12.768C255.51,12.768 256.69,16.776 256.69,16.776C256.768,17.041 257.046,17.192 257.311,17.114C257.575,17.036 257.727,16.758 257.649,16.494L256.469,12.486C256.186,11.525 256.744,10.503 257.704,10.22L262.698,8.75L259.157,8.75ZM264.256,8.75C264.726,8.961 265.107,9.368 265.262,9.897C265.262,9.897 266.442,13.905 266.442,13.905C266.52,14.17 266.798,14.321 267.063,14.243C267.328,14.166 267.479,13.887 267.401,13.623L266.222,9.615C266.128,9.295 265.981,9.005 265.793,8.75L264.256,8.75Z" style="fill:#a96320;"/>
            </g>
            <g transform="matrix(9.34269,2.7503,-2.7503,9.34269,-2186.82,-699.097)">
                <path d="M264.092,11.017C263.89,10.328 263.165,9.933 262.476,10.136L258.941,11.177C258.251,11.38 257.856,12.104 258.059,12.793C258.262,13.483 258.987,13.878 259.676,13.675L263.211,12.634C263.9,12.431 264.295,11.707 264.092,11.017Z" style="fill:#9e5a25;"/>
            </g>
            <g transform="matrix(9.34269,2.7503,-2.7503,9.34269,-2186.82,-699.097)">
                <path d="M262.843,11.384L259.308,12.425C258.861,12.555 258.518,12.916 258.408,13.368C258.745,13.69 259.23,13.807 259.676,13.674L263.211,12.633C263.658,12.503 264.002,12.142 264.111,11.69C263.774,11.369 263.289,11.252 262.843,11.384Z" style="fill:#75441b;fill-rule:nonzero;"/>
            </g>
            <g transform="matrix(9.34269,2.7503,-2.7503,9.34269,-2186.82,-699.097)">
                <path d="M260.95,15.522L261.208,16.398C261.24,16.508 261.356,16.571 261.466,16.539C261.577,16.506 261.64,16.39 261.607,16.28L261.35,15.404C261.317,15.294 261.201,15.231 261.091,15.263C260.981,15.296 260.917,15.412 260.95,15.522Z" style="fill:#a96320;"/>
            </g>
            <g transform="matrix(9.34269,2.7503,-2.7503,9.34269,-2186.82,-699.097)">
                <path d="M262.742,14.994L262.999,15.87C263.032,15.98 263.148,16.044 263.258,16.011C263.368,15.979 263.432,15.863 263.399,15.752L263.141,14.877C263.109,14.766 262.993,14.703 262.883,14.736C262.772,14.768 262.709,14.884 262.742,14.994Z" style="fill:#a96320;"/>
            </g>
            <g transform="matrix(9.34269,2.7503,-2.7503,9.34269,-2186.82,-699.097)">
                <path d="M246.181,29.317L245.33,26.428C245.072,25.546 245.584,24.607 246.465,24.348L251.404,22.894C252.285,22.634 253.224,23.146 253.484,24.027L254.335,26.916L246.181,29.317Z" style="fill:url(#_Linear7);fill-rule:nonzero;"/>
            </g>
            <g transform="matrix(9.34269,2.7503,-2.7503,9.34269,-2186.82,-699.097)">
                <path d="M246.661,29.175L245.81,26.287C245.629,25.668 245.988,25.009 246.606,24.827C246.606,24.827 251.545,23.374 251.545,23.374C252.163,23.191 252.822,23.55 253.005,24.169C253.005,24.169 253.855,27.057 253.855,27.057C253.933,27.322 254.211,27.474 254.476,27.396C254.741,27.318 254.892,27.04 254.814,26.775L253.964,23.886C253.626,22.741 252.407,22.077 251.263,22.414C251.263,22.414 246.324,23.868 246.324,23.868C245.179,24.205 244.515,25.424 244.851,26.568L245.701,29.458C245.779,29.722 246.057,29.874 246.322,29.796C246.587,29.718 246.738,29.44 246.661,29.175Z" style="fill:#a96320;"/>
            </g>
            <g transform="matrix(9.34269,2.7503,-2.7503,9.34269,-2186.82,-699.097)">
                <path d="M252.291,24.938C252.145,24.441 251.623,24.157 251.126,24.303L247.458,25.383C246.961,25.529 246.676,26.051 246.823,26.548C246.969,27.045 247.491,27.33 247.988,27.183L251.656,26.103C252.153,25.957 252.438,25.435 252.291,24.938Z" style="fill:#9e5a25;"/>
            </g>
            <g transform="matrix(9.34269,2.7503,-2.7503,9.34269,-2186.82,-699.097)">
                <path d="M251.391,25.202L247.723,26.282C247.402,26.377 247.155,26.636 247.076,26.962C247.318,27.192 247.667,27.277 247.988,27.182L251.656,26.102C251.977,26.008 252.224,25.748 252.302,25.423C252.06,25.192 251.712,25.108 251.391,25.202Z" style="fill:#75441b;fill-rule:nonzero;"/>
            </g>
            <g transform="matrix(9.34269,2.7503,-2.7503,9.34269,-2186.82,-699.097)">
                <path d="M249.161,28.439L249.418,29.315C249.451,29.425 249.567,29.488 249.677,29.456C249.787,29.424 249.851,29.308 249.818,29.197L249.56,28.322C249.528,28.211 249.412,28.148 249.302,28.181C249.191,28.213 249.128,28.329 249.161,28.439Z" style="fill:#a96320;"/>
            </g>
            <g transform="matrix(9.34269,2.7503,-2.7503,9.34269,-2186.82,-699.097)">
                <path d="M250.952,27.912L251.21,28.788C251.243,28.898 251.359,28.961 251.469,28.929C251.579,28.896 251.642,28.78 251.61,28.67L251.352,27.794C251.32,27.684 251.204,27.621 251.093,27.653C250.983,27.686 250.92,27.802 250.952,27.912Z" style="fill:#a96320;"/>
            </g>
            <g transform="matrix(9.34269,2.7503,-2.7503,9.34269,-2186.82,-699.097)">
                <path d="M244.634,13.837L244.315,12.754C244.101,12.018 244.529,11.235 245.264,11.019L248.623,10.03C249.358,9.816 250.139,10.242 250.357,10.975L250.676,12.059L244.634,13.837Z" style="fill:url(#_Linear8);fill-rule:nonzero;"/>
            </g>
            <g transform="matrix(9.34269,2.7503,-2.7503,9.34269,-2186.82,-699.097)">
                <path d="M245.114,13.696L244.795,12.614C244.657,12.141 244.933,11.638 245.405,11.499L248.763,10.51C249.235,10.373 249.737,10.646 249.878,11.118C249.878,11.118 250.196,12.2 250.196,12.2C250.274,12.465 250.552,12.616 250.817,12.539C251.082,12.461 251.234,12.182 251.156,11.918L250.836,10.833C250.54,9.837 249.48,9.26 248.483,9.55L245.123,10.539C244.125,10.833 243.544,11.895 243.835,12.894L244.154,13.979C244.232,14.243 244.511,14.395 244.775,14.317C245.04,14.239 245.192,13.961 245.114,13.696Z" style="fill:#a96320;"/>
            </g>
            <g transform="matrix(9.34269,2.7503,-2.7503,9.34269,-2186.82,-699.097)">
                <path d="M241.59,17.42L241.271,16.337C241.057,15.601 241.485,14.819 242.22,14.602L244.907,13.811C245.644,13.594 246.429,14.022 246.646,14.759C246.821,15.353 247.454,15.698 248.048,15.523L251.65,14.463C252.219,14.3 252.821,14.63 252.991,15.196L253.307,16.269L241.59,17.42Z" style="fill:#c68c3c;fill-rule:nonzero;"/>
            </g>
            <g transform="matrix(9.34269,2.7503,-2.7503,9.34269,-2186.82,-699.097)">
                <path d="M242.07,17.279L241.751,16.197C241.614,15.724 241.889,15.221 242.361,15.081C242.361,15.081 245.048,14.29 245.048,14.29C245.522,14.151 246.026,14.426 246.166,14.9C246.418,15.758 247.332,16.255 248.189,16.003C248.189,16.003 251.788,14.943 251.788,14.943C252.095,14.856 252.42,15.034 252.512,15.34C252.512,15.34 252.827,16.41 252.827,16.41C252.905,16.675 253.183,16.827 253.448,16.749C253.713,16.671 253.864,16.393 253.787,16.128L253.47,15.053C253.222,14.226 252.343,13.745 251.513,13.982L247.907,15.044C247.576,15.141 247.223,14.949 247.125,14.618C246.831,13.617 245.766,13.037 244.765,13.331L242.078,14.122C241.081,14.417 240.501,15.478 240.791,16.476L241.111,17.561C241.189,17.826 241.467,17.978 241.732,17.9C241.996,17.822 242.148,17.544 242.07,17.279Z" style="fill:#a96320;"/>
            </g>
            <g transform="matrix(9.34269,2.7503,-2.7503,9.34269,-2186.82,-699.097)">
                <path d="M264.038,21.97L263.719,20.887C263.502,20.15 263.93,19.365 264.667,19.148L268.03,18.158C268.767,17.941 269.552,18.369 269.769,19.106L270.089,20.193L264.038,21.97Z" style="fill:url(#_Linear9);fill-rule:nonzero;"/>
            </g>
            <g transform="matrix(9.34269,2.7503,-2.7503,9.34269,-2186.82,-699.097)">
                <path d="M264.518,21.829L264.199,20.746C264.059,20.272 264.335,19.767 264.809,19.627L268.171,18.637C268.645,18.498 269.15,18.773 269.29,19.247L269.61,20.335C269.688,20.599 269.966,20.751 270.23,20.673C270.495,20.595 270.647,20.317 270.569,20.052L270.249,18.965C269.954,17.964 268.889,17.384 267.889,17.678C267.887,17.679 267.885,17.679 267.884,17.68C267.885,17.679 264.526,18.668 264.526,18.668C263.526,18.963 262.945,20.028 263.24,21.028C263.24,21.028 263.559,22.112 263.559,22.112C263.637,22.376 263.915,22.528 264.179,22.45C264.444,22.372 264.596,22.094 264.518,21.829Z" style="fill:#a96320;"/>
            </g>
        </g>
        <g transform="matrix(1.16193,0,0,1.16193,-37.275,-9.02246)">
            <path d="M222.969,47.615C222.971,47.611 222.973,47.606 222.976,47.602C223.835,46.032 226.151,42.848 230.514,43.631C234.877,44.413 235.943,48.203 236.203,49.974C236.204,49.98 236.205,49.986 236.206,49.991C237.249,50.351 238.255,50.764 239.158,51.239C239.233,51.158 239.321,51.081 239.425,51.009C239.825,50.73 240.32,50.622 240.8,50.708C241.792,50.886 242.463,51.849 242.285,52.842C242.245,53.062 242.166,53.271 242.054,53.46C242.545,54.073 242.869,54.75 242.973,55.498C243.028,55.889 242.968,56.351 242.761,56.833L242.767,56.828C241.825,59.027 237.824,61.643 227.611,59.812L227.571,59.805C227.332,59.762 227.094,59.717 226.856,59.67C225.999,59.502 225.146,59.309 224.301,59.085C223.524,58.878 222.753,58.645 221.995,58.378C221.8,58.31 221.607,58.239 221.414,58.166L221.364,58.147C220.531,57.828 219.713,57.464 218.93,57.038C218.605,56.861 218.287,56.674 217.976,56.473C217.691,56.29 217.413,56.095 217.144,55.889C216.725,55.567 216.328,55.216 215.968,54.83C215.729,54.573 215.505,54.299 215.306,54.009C215.246,53.922 215.189,53.834 215.133,53.744L215.128,53.735C214.295,52.372 214.312,51.146 214.698,50.428C215.054,49.763 215.594,49.24 216.268,48.835C216.228,48.619 216.226,48.396 216.266,48.177C216.444,47.184 217.407,46.514 218.4,46.692C218.879,46.778 219.306,47.051 219.584,47.451C219.656,47.554 219.712,47.657 219.753,47.758C220.77,47.626 221.861,47.588 222.969,47.615Z" style="fill:#000332;fill-opacity:0.3;fill-rule:nonzero;"/>
        </g>
        <g id="et" transform="matrix(0.109593,0.0196509,-0.0196509,0.109593,214.408,38.1926)">
            <path d="M279,102.39C267,65.56 194.69,60.39 150,60.39C105.31,60.39 33,65.52 21,102.39C15.11,120.47 36.56,164.88 150,164.88C263.44,164.88 285.14,121.14 279,102.39Z" style="fill:#a15095;fill-rule:nonzero;"/>
            <path d="M150,146.8C76.1,146.8 38.08,130.88 20.84,114.22C25.74,134.95 56.84,164.88 150.03,164.88C243.22,164.88 274.45,135.41 279.29,114.48C262,131.1 223.92,146.8 150,146.8Z" style="fill:url(#_Linear10);fill-rule:nonzero;"/>
            <path d="M188.12,79.56C188.12,87.22 171.12,91.82 150.05,91.82C128.98,91.82 112,87.22 112,79.56C112,71.9 129,67.37 150.07,67.37C171.14,67.37 188.12,71.9 188.12,79.56Z" style="fill:#5b2f57;fill-rule:nonzero;"/>
            <path d="M161,39.74L139,39.74C138.997,39.74 138.993,39.74 138.99,39.74C136.104,39.74 133.73,42.114 133.73,45L133.73,90.79C139.142,91.485 144.594,91.82 150.05,91.79C155.473,91.819 160.892,91.485 166.27,90.79L166.27,45C166.27,42.114 163.896,39.74 161.01,39.74C161.007,39.74 161.003,39.74 161,39.74Z" style="fill:#cf1f3d;fill-rule:nonzero;"/>
            <path d="M162.28,83.13C162.28,83.13 169.81,83.24 169.81,83.13L169.81,77.89C169.81,76.881 170.641,76.05 171.65,76.05L173.58,76.05C174.589,76.05 175.42,75.219 175.42,74.21L175.42,69.63C175.42,69.627 175.42,69.623 175.42,69.62C175.42,68.616 176.246,67.79 177.25,67.79C177.25,67.79 177.25,67.79 177.25,67.79C178.259,67.79 179.09,68.621 179.09,69.63L179.09,77.16C179.09,78.169 178.259,79 177.25,79L174.88,79C174.863,79 174.847,78.999 174.83,78.999C173.826,78.999 173,79.825 173,80.829L173,85C173,86.009 172.169,86.84 171.16,86.84L163.05,86.84" style="fill:#cf1f3d;fill-rule:nonzero;"/>
            <path d="M137.72,83.13C137.72,83.13 130.19,83.24 130.19,83.13L130.19,77.89C130.19,76.881 129.359,76.05 128.35,76.05L126.42,76.05C125.411,76.05 124.58,75.219 124.58,74.21L124.58,69.63C124.58,69.627 124.58,69.623 124.58,69.62C124.58,68.616 123.754,67.79 122.75,67.79C122.75,67.79 122.75,67.79 122.75,67.79C121.741,67.79 120.91,68.621 120.91,69.63L120.91,77.16C120.91,78.169 121.741,79 122.75,79L125.12,79C125.137,79 125.153,78.999 125.17,78.999C126.174,78.999 127,79.825 127,80.829L127,85C127,86.009 127.831,86.84 128.84,86.84L136.95,86.84" style="fill:#cf1f3d;fill-rule:nonzero;"/>
            <path d="M155.47,67.705C155.47,64.683 153.017,62.23 149.995,62.23C146.973,62.23 144.52,64.683 144.52,67.705C144.52,70.727 146.973,73.18 149.995,73.18C153.017,73.18 155.47,70.727 155.47,67.705Z" style="fill:#fff;"/>
            <path d="M171.43,66.165C171.43,63.143 168.977,60.69 165.955,60.69C162.933,60.69 160.48,63.143 160.48,66.165C160.48,69.187 162.933,71.64 165.955,71.64C168.977,71.64 171.43,69.187 171.43,66.165Z" style="fill:#fff;"/>
            <path d="M139.52,66.165C139.52,63.143 137.067,60.69 134.045,60.69C131.023,60.69 128.57,63.143 128.57,66.165C128.57,69.187 131.023,71.64 134.045,71.64C137.067,71.64 139.52,69.187 139.52,66.165Z" style="fill:#fff;"/>
            <path d="M152.58,68.69C152.58,67.299 151.451,66.17 150.06,66.17C148.669,66.17 147.54,67.299 147.54,68.69C147.54,70.081 148.669,71.21 150.06,71.21C151.451,71.21 152.58,70.081 152.58,68.69Z" style="fill:#3a272c;"/>
            <path d="M167.31,67.33C167.31,65.939 166.181,64.81 164.79,64.81C163.399,64.81 162.27,65.939 162.27,67.33C162.27,68.721 163.399,69.85 164.79,69.85C166.181,69.85 167.31,68.721 167.31,67.33Z" style="fill:#3a272c;"/>
            <path d="M137.78,67.33C137.78,65.939 136.651,64.81 135.26,64.81C133.869,64.81 132.74,65.939 132.74,67.33C132.74,68.721 133.869,69.85 135.26,69.85C136.651,69.85 137.78,68.721 137.78,67.33Z" style="fill:#3a272c;"/>
            <path d="M150.05,17.23C189.86,17.23 205.29,49.05 210.4,64.29C212.173,69.575 211.111,75.417 207.59,79.74C199.98,89.03 182.81,99.74 150.05,99.74C117.29,99.74 100.12,89 92.51,79.74C88.989,75.417 87.927,69.575 89.7,64.29C94.81,49.05 110.24,17.23 150.05,17.23Z" style="fill:url(#_Linear11);fill-rule:nonzero;stroke:#19184d;stroke-width:3.94px;"/>
            <path d="M59.48,68.33C65.93,74.78 63.23,82.53 56.78,88.98C50.33,95.43 42.58,98.13 36.13,91.68C33.035,88.585 31.294,84.382 31.294,80.005C31.294,70.947 38.747,63.494 47.805,63.494C52.182,63.494 56.385,65.235 59.48,68.33Z" style="fill:#ffcd05;fill-rule:nonzero;"/>
            <path d="M98.71,114.09C98.71,123.21 91.32,127.74 82.2,127.74C73.08,127.74 65.68,123.21 65.68,114.09C65.667,113.819 65.66,113.548 65.66,113.277C65.66,104.215 73.117,96.757 82.18,96.757C91.243,96.757 98.7,104.215 98.7,113.277C98.7,113.548 98.693,113.819 98.68,114.09L98.71,114.09Z" style="fill:#ffcd05;fill-rule:nonzero;"/>
            <path d="M234.32,114.09C234.32,123.21 226.92,127.74 217.8,127.74C208.68,127.74 201.29,123.21 201.29,114.09C201.277,113.819 201.27,113.548 201.27,113.277C201.27,104.215 208.727,96.757 217.79,96.757C226.853,96.757 234.31,104.215 234.31,113.277C234.31,113.548 234.303,113.819 234.29,114.09L234.32,114.09Z" style="fill:#ffcd05;fill-rule:nonzero;"/>
            <path d="M166.51,128.57C166.51,137.69 159.12,142.22 150,142.22C140.88,142.22 133.49,137.69 133.49,128.57C133.798,119.735 141.15,112.635 149.99,112.635C158.83,112.635 166.182,119.735 166.49,128.57L166.51,128.57Z" style="fill:#ffcd05;fill-rule:nonzero;"/>
            <path d="M263.87,91.68C257.42,98.13 249.67,95.43 243.22,88.98C236.77,82.53 234.07,74.78 240.52,68.33C243.615,65.235 247.818,63.494 252.195,63.494C261.253,63.494 268.706,70.947 268.706,80.005C268.706,84.382 266.965,88.585 263.87,91.68Z" style="fill:#ffcd05;fill-rule:nonzero;"/>
            <path d="M56.78,77.52C50.33,83.97 42.58,86.67 36.13,80.22C34.449,78.538 33.153,76.511 32.33,74.28C30.088,80.313 31.577,87.131 36.13,91.68C42.58,98.13 50.33,95.43 56.78,88.98C62.34,83.42 65.1,76.88 61.62,71.05C60.361,73.45 58.727,75.635 56.78,77.52Z" style="fill:#e4ab24;fill-rule:nonzero;"/>
            <path d="M82.2,119.14C75.312,119.137 69.118,114.821 66.73,108.36C66.055,110.194 65.717,112.135 65.73,114.09C65.73,123.21 73.13,127.74 82.25,127.74C91.37,127.74 98.76,123.21 98.76,114.09C98.769,112.136 98.43,110.196 97.76,108.36C95.361,114.852 89.121,119.175 82.2,119.14Z" style="fill:#e4ab24;fill-rule:nonzero;"/>
            <path d="M217.8,119.14C210.912,119.137 204.718,114.821 202.33,108.36C201.66,110.196 201.321,112.136 201.33,114.09C201.33,123.21 208.72,127.74 217.84,127.74C226.96,127.74 234.36,123.21 234.36,114.09C234.373,112.135 234.035,110.194 233.36,108.36C230.961,114.852 224.721,119.175 217.8,119.14Z" style="fill:#e4ab24;fill-rule:nonzero;"/>
            <path d="M150,133.63C143.11,133.623 136.917,129.303 134.53,122.84C133.86,124.676 133.521,126.616 133.53,128.57C133.53,137.69 140.92,142.22 150.04,142.22C159.16,142.22 166.55,137.69 166.55,128.57C166.559,126.616 166.22,124.676 165.55,122.84C163.153,129.33 156.919,133.656 150,133.63Z" style="fill:#e4ab24;fill-rule:nonzero;"/>
            <path d="M263.87,80.22C257.42,86.67 249.67,83.97 243.22,77.52C241.273,75.635 239.639,73.45 238.38,71.05C234.9,76.88 237.66,83.42 243.22,88.98C249.67,95.43 257.42,98.13 263.87,91.68C268.423,87.131 269.912,80.313 267.67,74.28C266.847,76.511 265.551,78.538 263.87,80.22Z" style="fill:#e4ab24;fill-rule:nonzero;"/>
        </g>
        <path d="M172.955,55.467C172.992,55.414 173.054,55.385 173.117,55.391C173.181,55.397 173.236,55.437 173.263,55.496L173.884,56.887L175.342,57.327C175.403,57.346 175.45,57.396 175.464,57.458C175.478,57.521 175.457,57.586 175.41,57.629L174.279,58.649L174.31,60.172C174.312,60.236 174.278,60.296 174.223,60.329C174.168,60.361 174.1,60.362 174.045,60.33L172.724,59.569L171.285,60.07C171.225,60.091 171.158,60.078 171.11,60.036C171.062,59.994 171.041,59.929 171.054,59.866L171.369,58.376L170.448,57.162C170.409,57.111 170.401,57.043 170.426,56.984C170.452,56.926 170.507,56.885 170.57,56.879L172.085,56.718L172.955,55.467ZM78.319,51.382C78.363,51.336 78.429,51.317 78.491,51.332C78.553,51.348 78.602,51.396 78.619,51.457L79.023,52.926L80.399,53.581C80.457,53.609 80.495,53.665 80.5,53.729C80.504,53.793 80.474,53.854 80.42,53.889L79.148,54.728L78.95,56.239C78.942,56.302 78.9,56.356 78.841,56.38C78.782,56.404 78.714,56.394 78.664,56.354L77.473,55.404L75.975,55.682C75.913,55.694 75.848,55.671 75.807,55.622C75.766,55.573 75.755,55.505 75.777,55.445L76.313,54.019L75.586,52.681C75.555,52.624 75.557,52.556 75.591,52.502C75.625,52.448 75.685,52.416 75.749,52.419L77.271,52.488L78.319,51.382ZM261.465,50.454C261.478,50.391 261.524,50.341 261.585,50.322C261.647,50.303 261.713,50.319 261.76,50.362L262.868,51.408L264.384,51.254C264.447,51.247 264.509,51.275 264.546,51.328C264.583,51.38 264.589,51.448 264.562,51.506L263.91,52.883L264.525,54.277C264.551,54.335 264.543,54.403 264.505,54.454C264.467,54.506 264.404,54.532 264.34,54.524L262.829,54.33L261.694,55.346C261.646,55.388 261.579,55.402 261.519,55.381C261.458,55.361 261.413,55.309 261.401,55.246L261.119,53.749L259.802,52.983C259.747,52.951 259.713,52.891 259.714,52.827C259.715,52.763 259.75,52.705 259.806,52.674L261.143,51.943L261.465,50.454ZM228.143,23.499C228.191,23.456 228.258,23.443 228.318,23.463C228.379,23.484 228.424,23.535 228.436,23.598L228.718,25.095L230.035,25.861C230.09,25.894 230.124,25.953 230.123,26.017C230.122,26.081 230.087,26.139 230.031,26.17L228.694,26.901L228.373,28.391C228.359,28.453 228.313,28.503 228.252,28.522C228.191,28.541 228.124,28.526 228.078,28.482L226.969,27.437L225.454,27.591C225.39,27.598 225.328,27.569 225.291,27.517C225.254,27.465 225.248,27.397 225.276,27.339L225.927,25.962L225.312,24.568C225.286,24.51 225.294,24.442 225.332,24.39C225.37,24.339 225.433,24.313 225.497,24.321L227.008,24.515L228.143,23.499ZM9.067,14.829C9.074,14.765 9.115,14.71 9.174,14.686C9.233,14.661 9.301,14.67 9.352,14.709L10.556,15.642L12.049,15.343C12.112,15.33 12.177,15.352 12.218,15.401C12.26,15.449 12.273,15.516 12.251,15.576L11.735,17.01L12.482,18.338C12.513,18.394 12.512,18.462 12.479,18.517C12.446,18.571 12.386,18.604 12.322,18.602L10.799,18.555L9.767,19.675C9.724,19.722 9.658,19.742 9.596,19.728C9.534,19.713 9.484,19.666 9.466,19.605L9.041,18.142L7.656,17.506C7.598,17.48 7.559,17.424 7.554,17.36C7.548,17.296 7.578,17.235 7.631,17.199L8.89,16.342L9.067,14.829ZM129.23,8.75L133.439,8.75L133.425,8.78L134.04,10.174C134.065,10.233 134.058,10.301 134.019,10.352C133.981,10.403 133.918,10.43 133.855,10.422L132.344,10.228L131.208,11.243C131.16,11.286 131.093,11.299 131.033,11.279C130.972,11.258 130.928,11.207 130.916,11.144L130.633,9.647L129.317,8.881C129.269,8.853 129.237,8.804 129.23,8.75Z" style="fill:#fffd00;"/>
        <path d="M172.784,55.348L171.969,56.521C171.969,56.521 170.548,56.671 170.548,56.671C170.41,56.686 170.29,56.774 170.235,56.902C170.18,57.03 170.198,57.177 170.282,57.288C170.282,57.288 171.145,58.426 171.145,58.426C171.145,58.426 170.85,59.823 170.85,59.823C170.821,59.959 170.868,60.1 170.972,60.192C171.077,60.284 171.223,60.313 171.354,60.267C171.354,60.267 172.703,59.797 172.703,59.797C172.703,59.797 173.941,60.51 173.941,60.51C174.061,60.58 174.21,60.579 174.329,60.508C174.449,60.437 174.521,60.307 174.518,60.168C174.518,60.168 174.489,58.74 174.489,58.74C174.489,58.74 175.549,57.783 175.549,57.783C175.652,57.69 175.698,57.548 175.667,57.413C175.637,57.277 175.536,57.168 175.402,57.128C175.402,57.128 174.035,56.715 174.035,56.715C174.035,56.715 173.453,55.411 173.453,55.411C173.396,55.284 173.275,55.197 173.137,55.184C172.998,55.171 172.864,55.234 172.784,55.348ZM173.095,55.631L173.693,56.972C173.718,57.027 173.766,57.069 173.823,57.086L175.229,57.511L174.139,58.495C174.094,58.535 174.069,58.593 174.07,58.654L174.101,60.122L172.828,59.389C172.776,59.359 172.713,59.353 172.656,59.373L171.269,59.855L171.573,58.419C171.585,58.36 171.571,58.298 171.535,58.25L170.647,57.08L172.107,56.925C172.168,56.918 172.222,56.886 172.257,56.837L173.095,55.631ZM78.168,51.239L77.186,52.276C77.186,52.276 75.759,52.211 75.759,52.211C75.62,52.205 75.488,52.274 75.414,52.391C75.341,52.509 75.336,52.658 75.402,52.78C75.402,52.78 76.085,54.035 76.085,54.035C76.085,54.035 75.582,55.372 75.582,55.372C75.533,55.502 75.558,55.649 75.647,55.755C75.737,55.862 75.877,55.912 76.013,55.887C76.013,55.887 77.418,55.626 77.418,55.626C77.418,55.626 78.534,56.517 78.534,56.517C78.643,56.604 78.79,56.625 78.919,56.573C79.048,56.521 79.139,56.404 79.157,56.266C79.157,56.266 79.343,54.849 79.343,54.849C79.343,54.849 80.535,54.063 80.535,54.063C80.651,53.987 80.717,53.853 80.707,53.715C80.698,53.576 80.614,53.453 80.489,53.393C80.489,53.393 79.199,52.779 79.199,52.779C79.199,52.779 78.82,51.402 78.82,51.402C78.783,51.268 78.677,51.164 78.542,51.13C78.407,51.097 78.264,51.138 78.168,51.239ZM78.433,51.566L78.823,52.981C78.839,53.04 78.879,53.088 78.934,53.114L80.26,53.746L79.034,54.554C78.983,54.587 78.95,54.641 78.942,54.701L78.751,56.157L77.603,55.241C77.556,55.203 77.495,55.188 77.435,55.199L75.991,55.467L76.508,54.093C76.529,54.036 76.525,53.973 76.496,53.92L75.795,52.63L77.262,52.696C77.322,52.699 77.381,52.675 77.422,52.631L78.433,51.566ZM261.261,50.41L260.959,51.806C260.959,51.806 259.706,52.491 259.706,52.491C259.584,52.558 259.508,52.686 259.506,52.825C259.504,52.964 259.577,53.093 259.697,53.163C259.697,53.163 260.932,53.881 260.932,53.881C260.932,53.881 261.197,55.285 261.197,55.285C261.222,55.422 261.32,55.534 261.452,55.579C261.583,55.623 261.729,55.594 261.833,55.501C261.833,55.501 262.897,54.549 262.897,54.549C262.897,54.549 264.314,54.731 264.314,54.731C264.452,54.748 264.589,54.69 264.672,54.579C264.755,54.468 264.772,54.32 264.716,54.193C264.716,54.193 264.139,52.886 264.139,52.886C264.139,52.886 264.75,51.595 264.75,51.595C264.81,51.469 264.797,51.321 264.717,51.207C264.636,51.094 264.501,51.032 264.363,51.046C264.363,51.046 262.942,51.191 262.942,51.191C262.942,51.191 261.903,50.211 261.903,50.211C261.801,50.115 261.657,50.082 261.524,50.123C261.391,50.164 261.29,50.274 261.261,50.41ZM261.657,50.552L262.725,51.559C262.769,51.601 262.829,51.621 262.889,51.615L264.35,51.466L263.722,52.794C263.696,52.848 263.695,52.912 263.72,52.967L264.312,54.31L262.856,54.123C262.796,54.116 262.736,54.134 262.69,54.175L261.596,55.154L261.324,53.71C261.313,53.651 261.276,53.599 261.224,53.569L259.955,52.831L261.243,52.126C261.296,52.097 261.334,52.046 261.347,51.987L261.657,50.552ZM228.004,23.344L226.94,24.296C226.94,24.296 225.523,24.114 225.523,24.114C225.385,24.096 225.248,24.154 225.165,24.266C225.082,24.377 225.065,24.525 225.121,24.652C225.121,24.652 225.698,25.959 225.698,25.959C225.698,25.959 225.087,27.25 225.087,27.25C225.028,27.376 225.041,27.524 225.121,27.637C225.201,27.751 225.336,27.813 225.475,27.799C225.475,27.799 226.896,27.654 226.896,27.654C226.896,27.654 227.935,28.634 227.935,28.634C228.036,28.729 228.181,28.763 228.314,28.721C228.447,28.68 228.547,28.571 228.576,28.435C228.576,28.435 228.878,27.038 228.878,27.038C228.878,27.038 230.131,26.353 230.131,26.353C230.253,26.286 230.33,26.159 230.331,26.02C230.333,25.881 230.26,25.751 230.14,25.681C230.14,25.681 228.905,24.963 228.905,24.963C228.905,24.963 228.64,23.56 228.64,23.56C228.615,23.423 228.517,23.311 228.385,23.266C228.254,23.221 228.108,23.251 228.004,23.344ZM228.241,23.691L228.513,25.134C228.525,25.193 228.561,25.245 228.613,25.275L229.883,26.014L228.594,26.719C228.541,26.748 228.504,26.798 228.491,26.857L228.181,28.293L227.112,27.285C227.068,27.244 227.009,27.224 226.948,27.23L225.487,27.378L226.115,26.051C226.141,25.996 226.142,25.933 226.118,25.878L225.525,24.534L226.981,24.721C227.041,24.729 227.102,24.71 227.147,24.67L228.241,23.691ZM8.86,14.804L8.694,16.223C8.694,16.223 7.513,17.026 7.513,17.026C7.398,17.105 7.334,17.239 7.346,17.377C7.358,17.516 7.443,17.638 7.569,17.696C7.569,17.696 8.868,18.291 8.868,18.291C8.868,18.291 9.266,19.663 9.266,19.663C9.305,19.796 9.413,19.899 9.548,19.931C9.684,19.962 9.826,19.919 9.92,19.816C9.92,19.816 10.888,18.766 10.888,18.766C10.888,18.766 12.316,18.81 12.316,18.81C12.455,18.815 12.585,18.744 12.657,18.625C12.729,18.506 12.732,18.357 12.664,18.236C12.664,18.236 11.964,16.991 11.964,16.991C11.964,16.991 12.447,15.647 12.447,15.647C12.494,15.516 12.467,15.37 12.376,15.265C12.285,15.159 12.145,15.111 12.008,15.138C12.008,15.138 10.608,15.419 10.608,15.419C10.608,15.419 9.479,14.544 9.479,14.544C9.369,14.459 9.222,14.44 9.094,14.494C8.965,14.547 8.876,14.666 8.86,14.804ZM9.267,14.907L10.428,15.807C10.476,15.844 10.537,15.859 10.597,15.847L12.036,15.558L11.539,16.94C11.519,16.996 11.524,17.059 11.554,17.112L12.274,18.392L10.806,18.346C10.745,18.345 10.687,18.369 10.646,18.414L9.651,19.494L9.241,18.084C9.224,18.025 9.183,17.978 9.128,17.952L7.793,17.34L9.008,16.514C9.058,16.48 9.09,16.426 9.097,16.366L9.267,14.907ZM129.021,8.75L129.506,8.75L130.738,9.467C130.79,9.497 130.827,9.549 130.838,9.608L131.11,11.051L132.205,10.072C132.25,10.032 132.31,10.013 132.37,10.021L133.827,10.208L133.234,8.865C133.218,8.828 133.213,8.788 133.219,8.75L133.669,8.75L133.654,8.783C133.654,8.783 134.23,10.09 134.23,10.09C134.286,10.218 134.27,10.365 134.186,10.477C134.103,10.588 133.966,10.646 133.828,10.628C133.828,10.628 132.412,10.446 132.412,10.446C132.412,10.446 131.347,11.398 131.347,11.398C131.243,11.491 131.098,11.521 130.966,11.476C130.834,11.431 130.737,11.319 130.711,11.182C130.711,11.182 130.446,9.779 130.446,9.779C130.446,9.779 129.212,9.061 129.212,9.061C129.1,8.995 129.028,8.878 129.021,8.75Z" style="fill:#bd8a00;"/>
    </g>
    <defs>
        <linearGradient id="_Linear1" x1="0" y1="0" x2="1" y2="0" gradientUnits="userSpaceOnUse" gradientTransform="matrix(1356.23,0,0,546.548,322.168,938.364)"><stop offset="0" style="stop-color:#c02a8e;stop-opacity:0.5"/><stop offset="1" style="stop-color:#0e30be;stop-opacity:0.5"/></linearGradient>
        <linearGradient id="_Linear2" x1="0" y1="0" x2="1" y2="0" gradientUnits="userSpaceOnUse" gradientTransform="matrix(236.685,13.1492,-13.1492,236.685,8.98969,43.7743)"><stop offset="0" style="stop-color:#22ffa6;stop-opacity:0.4"/><stop offset="0.52" style="stop-color:#3e93e7;stop-opacity:0.4"/><stop offset="1" style="stop-color:#486bff;stop-opacity:0.4"/></linearGradient>
        <linearGradient id="_Linear3" x1="0" y1="0" x2="1" y2="0" gradientUnits="userSpaceOnUse" gradientTransform="matrix(1117.7,186.424,-56.4785,338.617,561.364,450.712)"><stop offset="0" style="stop-color:#d896c7;stop-opacity:0.5"/><stop offset="0.56" style="stop-color:#5d62db;stop-opacity:0.5"/><stop offset="1" style="stop-color:#284ce4;stop-opacity:0.5"/></linearGradient>
        <linearGradient id="_Linear4" x1="0" y1="0" x2="1" y2="0" gradientUnits="userSpaceOnUse" gradientTransform="matrix(17.6854,-146.788,146.788,17.6854,136.387,292.293)"><stop offset="0" style="stop-color:#d69b5a;stop-opacity:1"/><stop offset="0.5" style="stop-color:#9a5e39;stop-opacity:1"/><stop offset="1" style="stop-color:#9a5e39;stop-opacity:1"/></linearGradient>
        <linearGradient id="_Linear5" x1="0" y1="0" x2="1" y2="0" gradientUnits="userSpaceOnUse" gradientTransform="matrix(1.19372e-14,-194.95,194.95,1.19372e-14,150,356.11)"><stop offset="0" style="stop-color:#c68c3c;stop-opacity:1"/><stop offset="0.69" style="stop-color:#90321c;stop-opacity:1"/><stop offset="1" style="stop-color:#90321c;stop-opacity:1"/></linearGradient>
        <linearGradient id="_Linear6" x1="0" y1="0" x2="1" y2="0" gradientUnits="userSpaceOnUse" gradientTransform="matrix(6.61799e-15,-108.08,108.08,6.61799e-15,219.58,173.94)"><stop offset="0" style="stop-color:#c68c3c;stop-opacity:1"/><stop offset="0.14" style="stop-color:#c68c3c;stop-opacity:1"/><stop offset="0.72" style="stop-color:#bc753a;stop-opacity:1"/><stop offset="1" style="stop-color:#bc753a;stop-opacity:1"/></linearGradient>
        <linearGradient id="_Linear7" x1="0" y1="0" x2="1" y2="0" gradientUnits="userSpaceOnUse" gradientTransform="matrix(2.89507e-15,-47.28,47.28,2.89507e-15,73.91,253.1)"><stop offset="0" style="stop-color:#c68c3c;stop-opacity:1"/><stop offset="0.1" style="stop-color:#c68c3c;stop-opacity:1"/><stop offset="0.87" style="stop-color:#bc753a;stop-opacity:1"/><stop offset="1" style="stop-color:#bc753a;stop-opacity:1"/></linearGradient>
        <linearGradient id="_Linear8" x1="0" y1="0" x2="1" y2="0" gradientUnits="userSpaceOnUse" gradientTransform="matrix(7.83468e-15,-127.95,127.95,7.83468e-15,91.35,154.17)"><stop offset="0" style="stop-color:#c68c3c;stop-opacity:1"/><stop offset="0.4" style="stop-color:#c68c3c;stop-opacity:1"/><stop offset="0.72" style="stop-color:#bc753a;stop-opacity:1"/><stop offset="1" style="stop-color:#bc753a;stop-opacity:1"/></linearGradient>
        <linearGradient id="_Linear9" x1="0" y1="0" x2="1" y2="0" gradientUnits="userSpaceOnUse" gradientTransform="matrix(4.35362e-15,-71.1,71.1,4.35362e-15,250.27,257.64)"><stop offset="0" style="stop-color:#c68c3c;stop-opacity:1"/><stop offset="0.37" style="stop-color:#c68c3c;stop-opacity:1"/><stop offset="0.72" style="stop-color:#bc753a;stop-opacity:1"/><stop offset="1" style="stop-color:#bc753a;stop-opacity:1"/></linearGradient>
        <linearGradient id="_Linear10" x1="0" y1="0" x2="1" y2="0" gradientUnits="userSpaceOnUse" gradientTransform="matrix(4.38179e-15,-71.56,71.56,4.38179e-15,150.04,174.54)"><stop offset="0" style="stop-color:#a15095;stop-opacity:1"/><stop offset="0.13" style="stop-color:#a15095;stop-opacity:1"/><stop offset="0.49" style="stop-color:#822778;stop-opacity:1"/><stop offset="1" style="stop-color:#822778;stop-opacity:1"/></linearGradient>
        <linearGradient id="_Linear11" x1="0" y1="0" x2="1" y2="0" gradientUnits="userSpaceOnUse" gradientTransform="matrix(6.10609e-15,99.72,-99.72,6.10609e-15,150.05,9.58)"><stop offset="0" style="stop-color:#00c2f3;stop-opacity:0.5"/><stop offset="1" style="stop-color:#0086cb;stop-opacity:0.5"/></linearGradient>
    </defs>
</svg>
