<?xml version="1.0" encoding="UTF-8" standalone="no"?>
<!DOCTYPE svg PUBLIC "-//W3C//DTD SVG 1.1//EN" "http://www.w3.org/Graphics/SVG/1.1/DTD/svg11.dtd">
<svg width="100%" height="100%" viewBox="0 0 280 62" version="1.1" xmlns="http://www.w3.org/2000/svg" xmlns:xlink="http://www.w3.org/1999/xlink" xml:space="preserve" xmlns:serif="http://www.serif.com/" style="fill-rule:evenodd;clip-rule:evenodd;stroke-linejoin:round;stroke-miterlimit:2;">
    <g id="banner_62" transform="matrix(1,0,0,1,0,-8.75)">
        <path d="M280,47.751L-0,47.751L-0,65.286C-0,67.888 2.112,70 4.714,70L275.286,70C277.888,70 280,67.888 280,65.286L280,47.751Z" style="fill:#005b3c;"/>
        <g transform="matrix(1,0,0,1,0,8.75)">
            <path d="M280,51.412L280,17.209C280,15.14 278.32,13.459 276.25,13.459L259.062,13.459L226.373,13.416C218.374,13.416 211.608,-0 204.302,0L3.713,0C1.664,0 -0,1.664 -0,3.713L-0,51.412C-0,53.461 1.664,55.125 3.713,55.125L276.287,55.125C278.336,55.125 280,53.461 280,51.412Z" style="fill:#00865d;"/>
        </g>
        <g id="_02" serif:id="02" transform="matrix(0.206179,0,0,0.206179,1.31109,-225.212)">
            <path d="M1263.44,1379.57L1263.44,1355.23L1265,1353.67L1283.29,1353.67L1284.85,1355.23L1284.85,1379.57L1283.29,1381.12L1265,1381.12L1263.44,1379.57ZM1278.75,1356.74L1266.47,1356.74L1266.47,1378.05L1275.59,1378.05L1275.59,1364.41L1278.75,1361.31L1278.75,1356.74Z" style="fill:#fff;fill-rule:nonzero;"/>
            <path d="M1288.88,1362.84L1288.88,1355.23L1290.44,1353.67L1308.77,1353.67L1310.33,1355.23L1310.33,1370.45L1308.81,1371.96L1298,1371.96L1298,1378.05L1307.31,1378.05L1307.31,1374.98L1310.33,1374.98L1310.33,1379.61L1308.81,1381.12L1290.4,1381.12L1288.88,1379.61L1288.88,1370.44L1290.45,1368.89L1304.23,1368.89L1304.23,1356.74L1292,1356.74L1292,1362.84L1288.88,1362.84Z" style="fill:#fff;fill-rule:nonzero;"/>
        </g>
        <g id="_01" serif:id="01" transform="matrix(0.256794,0,0,0.256794,-104.818,-246.573)">
            <path d="M432.27,1121.41L432.27,1097.07L433.829,1095.51L452.116,1095.51L453.674,1097.07L453.674,1121.41L452.116,1122.97L433.829,1122.97L432.27,1121.41ZM447.579,1098.58L435.295,1098.58L435.295,1119.9L444.416,1119.9L444.416,1106.25L447.579,1103.15L447.579,1098.58Z" style="fill:#fff;fill-rule:nonzero;"/>
            <path d="M457.937,1106.17L461.054,1103.06L461.054,1097.07L462.612,1095.51L465.591,1095.51L467.149,1097.07L467.149,1121.41L465.591,1122.97L459.495,1122.97L457.937,1121.41L457.937,1106.17Z" style="fill:#fff;fill-rule:nonzero;"/>
        </g>
        <g transform="matrix(1,0,0,1,0,8.75)">
            <path d="M219.637,35.996L219.637,48.285C219.637,48.285 236.263,48.285 236.263,48.285L238.987,42.215C239.155,41.84 239.527,41.6 239.938,41.6L243.88,41.6C244.262,41.6 244.614,41.809 244.796,42.145C244.796,42.145 248.358,48.714 248.358,48.714C248.358,48.714 257.19,48.714 257.19,48.714C257.19,48.714 257.19,22.228 257.19,22.228L219.259,22.228C219.024,22.228 218.796,22.148 218.612,22.003C218.612,22.003 199.745,7.053 199.745,7.053C191.672,7.053 51.535,7.053 51.535,7.053L51.535,16.741C51.535,17.316 51.069,17.783 50.494,17.783C50.494,17.783 41.373,17.783 41.373,17.783L41.373,31.076L47.415,31.076C47.659,31.076 47.895,31.162 48.082,31.318L53.47,35.812C53.708,36.01 53.845,36.303 53.845,36.612L53.845,42.873C53.845,43.448 53.378,43.915 52.803,43.915C52.228,43.915 51.761,43.448 51.761,42.873C51.761,42.873 51.761,37.1 51.761,37.1C51.761,37.1 47.038,33.16 47.038,33.16L41.373,33.16L41.373,44.365C41.373,44.94 40.907,45.407 40.332,45.407C39.757,45.407 39.29,44.94 39.29,44.365L39.29,33.16L28.966,33.16L28.966,44.365C28.966,44.94 28.5,45.407 27.925,45.407C27.35,45.407 26.883,44.94 26.883,44.365L26.883,33.16L20.3,33.16C20.3,33.16 16.431,37.029 16.431,37.029L16.431,44.365C16.431,44.94 15.964,45.407 15.389,45.407C14.814,45.407 14.348,44.94 14.348,44.365L14.348,36.597C14.348,36.321 14.457,36.056 14.653,35.861L19.132,31.381C19.327,31.186 19.592,31.076 19.869,31.076L39.29,31.076L39.29,16.741C39.29,16.166 39.757,15.699 40.332,15.699C40.332,15.699 49.452,15.699 49.452,15.699L49.452,6.011C49.452,5.436 49.918,4.969 50.494,4.969L200.108,4.969C200.342,4.969 200.57,5.049 200.755,5.195C200.755,5.195 219.622,20.144 219.622,20.144L258.232,20.144C258.807,20.144 259.274,20.611 259.274,21.186L259.274,49.755C259.274,50.331 258.807,50.797 258.232,50.797L247.737,50.797C247.355,50.797 247.004,50.588 246.822,50.252C246.822,50.252 243.26,43.683 243.26,43.683C243.26,43.683 240.612,43.683 240.612,43.683L237.888,49.753C237.72,50.128 237.348,50.369 236.938,50.369L218.595,50.369C218.02,50.369 217.553,49.902 217.553,49.327L217.553,35.976C217.553,35.976 216.526,34.688 216.526,33.196C216.526,32.045 217.461,31.111 218.612,31.111C219.763,31.111 220.697,32.045 220.697,33.196C220.697,34.914 219.637,35.996 219.637,35.996ZM11.909,22.618C11.909,22.618 10.91,23.643 9.214,23.643C8.063,23.643 7.129,22.709 7.129,21.558C7.129,20.407 8.063,19.472 9.214,19.472C10.891,19.472 11.931,20.535 11.931,20.535L22.555,20.535C23.13,20.535 23.596,21.002 23.596,21.576C23.596,22.151 23.13,22.618 22.555,22.618L11.909,22.618Z" style="fill:#005b3c;"/>
        </g>
        <g>
            <g transform="matrix(0.0914339,0,0,0.0914339,-82.0775,-70.8346)">
                <circle cx="1000.29" cy="1106.53" r="14.018" style="fill:#bc966a;"/>
            </g>
            <g transform="matrix(0.0914339,0,0,0.0914339,127.136,-59.0751)">
                <circle cx="1000.29" cy="1106.53" r="14.018" style="fill:#bc966a;"/>
            </g>
            <g transform="matrix(0.135671,0,0,0.135671,-76.0236,-109.238)">
                <circle cx="1000.29" cy="1106.53" r="14.018" style="fill:#bc966a;"/>
            </g>
            <g transform="matrix(0.135671,0,0,0.135671,-76.0236,-115.291)">
                <circle cx="1000.29" cy="1106.53" r="14.018" style="fill:#bc966a;"/>
            </g>
            <g transform="matrix(0.135671,0,0,0.135671,-76.0236,-121.281)">
                <circle cx="1000.29" cy="1106.53" r="14.018" style="fill:#bc966a;"/>
            </g>
            <g transform="matrix(0.135671,0,0,0.135671,-76.0236,-127.006)">
                <circle cx="1000.29" cy="1106.53" r="14.018" style="fill:#bc966a;"/>
            </g>
        </g>
        <g transform="matrix(1,0,0,1,0,8.75)">
            <path d="M259.062,13.459L256.979,13.417L256.979,13.416C256.979,13.416 226.373,13.416 226.373,13.416C218.374,13.416 211.608,-0 204.302,0L3.713,0C1.664,0 -0,1.664 -0,3.713L-0,51.412C-0,53.461 1.664,55.125 3.713,55.125L276.287,55.125C278.336,55.125 280,53.461 280,51.412L280,17.209C280,15.14 278.32,13.459 276.25,13.459L259.062,13.459ZM226.373,15.499L276.25,15.543C277.17,15.543 277.917,16.29 277.917,17.209C277.917,17.209 277.917,51.412 277.917,51.412C277.917,52.312 277.187,53.042 276.287,53.042L3.713,53.042C2.813,53.042 2.083,52.312 2.083,51.412L2.083,3.713C2.083,2.813 2.813,2.083 3.713,2.083L204.302,2.083C205.733,2.083 207.109,2.814 208.509,3.8C210.224,5.007 211.928,6.623 213.658,8.233C215.945,10.36 218.277,12.471 220.68,13.833C222.526,14.879 224.424,15.499 226.373,15.499Z" style="fill:#00cd85;"/>
        </g>
        <g>
            <g transform="matrix(0.119085,0,0,0.119085,-37.7196,-44.0381)">
                <circle cx="396.408" cy="522.092" r="22.06" style="fill:#fff;"/>
            </g>
            <g transform="matrix(0.0643664,0,0,0.0643664,-20.284,-19.8338)">
                <path d="M460.876,499.567C511.139,499.567 551.946,540.374 551.946,590.637C551.946,640.9 511.139,681.707 460.876,681.707C410.613,681.707 369.806,640.9 369.806,590.637C369.806,540.374 410.613,499.567 460.876,499.567ZM460.876,561.522C476.945,561.522 489.991,574.568 489.991,590.637C489.991,606.706 476.945,619.752 460.876,619.752C444.807,619.752 431.761,606.706 431.761,590.637C431.761,574.568 444.807,561.522 460.876,561.522Z" style="fill:#f5da8d;"/>
            </g>
            <g transform="matrix(0.0643664,0,0,0.0643664,-20.284,-19.8338)">
                <path d="M460.876,495.141C408.17,495.141 365.38,537.931 365.38,590.637C365.38,643.342 408.17,686.133 460.876,686.133C513.582,686.133 556.372,643.342 556.372,590.637C556.372,537.931 513.582,495.141 460.876,495.141ZM460.876,503.992C508.696,503.992 547.52,542.816 547.52,590.637C547.52,638.457 508.696,677.281 460.876,677.281C413.056,677.281 374.232,638.457 374.232,590.637C374.232,542.816 413.056,503.992 460.876,503.992ZM460.876,557.096C442.364,557.096 427.335,572.125 427.335,590.637C427.335,609.148 442.364,624.178 460.876,624.178C479.388,624.178 494.417,609.148 494.417,590.637C494.417,572.125 479.388,557.096 460.876,557.096ZM460.876,565.947C474.502,565.947 485.565,577.01 485.565,590.637C485.565,604.263 474.502,615.326 460.876,615.326C447.25,615.326 436.187,604.263 436.187,590.637C436.187,577.01 447.25,565.947 460.876,565.947Z" style="fill:#ffca30;"/>
            </g>
        </g>
        <g transform="matrix(1,0,0,1,-1.25073,1.08616)">
            <g transform="matrix(0.119085,0,0,0.119085,224.741,-31.4239)">
                <circle cx="396.408" cy="522.092" r="22.06" style="fill:#fff;"/>
            </g>
            <g transform="matrix(0.0643664,0,0,0.0643664,242.176,-7.21963)">
                <path d="M460.876,499.567C511.139,499.567 551.946,540.374 551.946,590.637C551.946,640.9 511.139,681.707 460.876,681.707C410.613,681.707 369.806,640.9 369.806,590.637C369.806,540.374 410.613,499.567 460.876,499.567ZM460.876,561.522C476.945,561.522 489.991,574.568 489.991,590.637C489.991,606.706 476.945,619.752 460.876,619.752C444.807,619.752 431.761,606.706 431.761,590.637C431.761,574.568 444.807,561.522 460.876,561.522Z" style="fill:#f5da8d;"/>
            </g>
            <g transform="matrix(0.0643664,0,0,0.0643664,242.176,-7.21963)">
                <path d="M460.876,495.141C408.17,495.141 365.38,537.931 365.38,590.637C365.38,643.342 408.17,686.133 460.876,686.133C513.582,686.133 556.372,643.342 556.372,590.637C556.372,537.931 513.582,495.141 460.876,495.141ZM460.876,503.992C508.696,503.992 547.52,542.816 547.52,590.637C547.52,638.457 508.696,677.281 460.876,677.281C413.056,677.281 374.232,638.457 374.232,590.637C374.232,542.816 413.056,503.992 460.876,503.992ZM460.876,557.096C442.364,557.096 427.335,572.125 427.335,590.637C427.335,609.148 442.364,624.178 460.876,624.178C479.388,624.178 494.417,609.148 494.417,590.637C494.417,572.125 479.388,557.096 460.876,557.096ZM460.876,565.947C474.502,565.947 485.565,577.01 485.565,590.637C485.565,604.263 474.502,615.326 460.876,615.326C447.25,615.326 436.187,604.263 436.187,590.637C436.187,577.01 447.25,565.947 460.876,565.947Z" style="fill:#ffca30;"/>
            </g>
        </g>
        <g transform="matrix(0.183463,0,0,0.183463,-19.0462,-81.1773)">
            <g transform="matrix(1,0,0,1,-12.7785,83.4584)">
                <path d="M434.789,641.596C434.789,638.78 432.503,636.493 429.686,636.493L421.945,636.493C419.128,636.493 416.841,638.78 416.841,641.596L416.841,643.837C416.841,646.653 419.128,648.94 421.945,648.94L429.686,648.94C432.503,648.94 434.789,646.653 434.789,643.837L434.789,641.596Z" style="fill:#beb6b3;"/>
            </g>
            <g transform="matrix(1,0,0,1,-12.7785,99.4465)">
                <path d="M434.789,641.596C434.789,638.78 432.503,636.493 429.686,636.493L421.945,636.493C419.128,636.493 416.841,638.78 416.841,641.596L416.841,643.837C416.841,646.653 419.128,648.94 421.945,648.94L429.686,648.94C432.503,648.94 434.789,646.653 434.789,643.837L434.789,641.596Z" style="fill:#beb6b3;"/>
            </g>
            <g transform="matrix(1,0,0,1,-55.2386,83.4584)">
                <path d="M434.789,641.596C434.789,638.78 432.503,636.493 429.686,636.493L421.945,636.493C419.128,636.493 416.841,638.78 416.841,641.596L416.841,643.837C416.841,646.653 419.128,648.94 421.945,648.94L429.686,648.94C432.503,648.94 434.789,646.653 434.789,643.837L434.789,641.596Z" style="fill:#beb6b3;"/>
            </g>
            <g transform="matrix(1,0,0,1,-55.2386,99.4465)">
                <path d="M434.789,641.596C434.789,638.78 432.503,636.493 429.686,636.493L421.945,636.493C419.128,636.493 416.841,638.78 416.841,641.596L416.841,643.837C416.841,646.653 419.128,648.94 421.945,648.94L429.686,648.94C432.503,648.94 434.789,646.653 434.789,643.837L434.789,641.596Z" style="fill:#beb6b3;"/>
            </g>
            <g transform="matrix(1,0,0,1,-10.7785,82.7707)">
                <path d="M420.135,636.706C420.135,635.398 419.073,634.337 417.765,634.337L387.046,634.337C385.739,634.337 384.677,635.398 384.677,636.706L384.677,665.813C384.677,667.121 385.739,668.182 387.046,668.182L417.765,668.182C419.073,668.182 420.135,667.121 420.135,665.813L420.135,636.706Z" style="fill:#343434;"/>
            </g>
            <g transform="matrix(5.45068,0,0,5.45068,103.815,490.165)">
                <path d="M49.673,41.768L55.937,47.709C56.011,47.631 56.056,47.526 56.056,47.41L56.056,42.07C56.056,41.83 55.861,41.636 55.621,41.636L49.985,41.636C49.863,41.636 49.752,41.687 49.673,41.768Z" style="fill:#7c7c7c;fill-opacity:0.25;"/>
            </g>
        </g>
        <g transform="matrix(0.183463,0,0,0.183463,-31.522,-81.1773)">
            <g transform="matrix(1,0,0,1,-12.7785,83.4584)">
                <path d="M434.789,641.596C434.789,638.78 432.503,636.493 429.686,636.493L421.945,636.493C419.128,636.493 416.841,638.78 416.841,641.596L416.841,643.837C416.841,646.653 419.128,648.94 421.945,648.94L429.686,648.94C432.503,648.94 434.789,646.653 434.789,643.837L434.789,641.596Z" style="fill:#beb6b3;"/>
            </g>
            <g transform="matrix(1,0,0,1,-12.7785,99.4465)">
                <path d="M434.789,641.596C434.789,638.78 432.503,636.493 429.686,636.493L421.945,636.493C419.128,636.493 416.841,638.78 416.841,641.596L416.841,643.837C416.841,646.653 419.128,648.94 421.945,648.94L429.686,648.94C432.503,648.94 434.789,646.653 434.789,643.837L434.789,641.596Z" style="fill:#beb6b3;"/>
            </g>
            <g transform="matrix(1,0,0,1,-55.2386,83.4584)">
                <path d="M434.789,641.596C434.789,638.78 432.503,636.493 429.686,636.493L421.945,636.493C419.128,636.493 416.841,638.78 416.841,641.596L416.841,643.837C416.841,646.653 419.128,648.94 421.945,648.94L429.686,648.94C432.503,648.94 434.789,646.653 434.789,643.837L434.789,641.596Z" style="fill:#beb6b3;"/>
            </g>
            <g transform="matrix(1,0,0,1,-55.2386,99.4465)">
                <path d="M434.789,641.596C434.789,638.78 432.503,636.493 429.686,636.493L421.945,636.493C419.128,636.493 416.841,638.78 416.841,641.596L416.841,643.837C416.841,646.653 419.128,648.94 421.945,648.94L429.686,648.94C432.503,648.94 434.789,646.653 434.789,643.837L434.789,641.596Z" style="fill:#beb6b3;"/>
            </g>
            <g transform="matrix(1,0,0,1,-10.7785,82.7707)">
                <path d="M420.135,636.706C420.135,635.398 419.073,634.337 417.765,634.337L387.046,634.337C385.739,634.337 384.677,635.398 384.677,636.706L384.677,665.813C384.677,667.121 385.739,668.182 387.046,668.182L417.765,668.182C419.073,668.182 420.135,667.121 420.135,665.813L420.135,636.706Z" style="fill:#343434;"/>
            </g>
            <g transform="matrix(5.45068,0,0,5.45068,103.815,490.165)">
                <path d="M49.673,41.768L55.937,47.709C56.011,47.631 56.056,47.526 56.056,47.41L56.056,42.07C56.056,41.83 55.861,41.636 55.621,41.636L49.985,41.636C49.863,41.636 49.752,41.687 49.673,41.768Z" style="fill:#7c7c7c;fill-opacity:0.25;"/>
            </g>
        </g>
        <g transform="matrix(0.183463,0,0,0.183463,-43.9244,-81.1773)">
            <g transform="matrix(1,0,0,1,-12.7785,83.4584)">
                <path d="M434.789,641.596C434.789,638.78 432.503,636.493 429.686,636.493L421.945,636.493C419.128,636.493 416.841,638.78 416.841,641.596L416.841,643.837C416.841,646.653 419.128,648.94 421.945,648.94L429.686,648.94C432.503,648.94 434.789,646.653 434.789,643.837L434.789,641.596Z" style="fill:#beb6b3;"/>
            </g>
            <g transform="matrix(1,0,0,1,-12.7785,99.4465)">
                <path d="M434.789,641.596C434.789,638.78 432.503,636.493 429.686,636.493L421.945,636.493C419.128,636.493 416.841,638.78 416.841,641.596L416.841,643.837C416.841,646.653 419.128,648.94 421.945,648.94L429.686,648.94C432.503,648.94 434.789,646.653 434.789,643.837L434.789,641.596Z" style="fill:#beb6b3;"/>
            </g>
            <g transform="matrix(1,0,0,1,-55.2386,83.4584)">
                <path d="M434.789,641.596C434.789,638.78 432.503,636.493 429.686,636.493L421.945,636.493C419.128,636.493 416.841,638.78 416.841,641.596L416.841,643.837C416.841,646.653 419.128,648.94 421.945,648.94L429.686,648.94C432.503,648.94 434.789,646.653 434.789,643.837L434.789,641.596Z" style="fill:#beb6b3;"/>
            </g>
            <g transform="matrix(1,0,0,1,-55.2386,99.4465)">
                <path d="M434.789,641.596C434.789,638.78 432.503,636.493 429.686,636.493L421.945,636.493C419.128,636.493 416.841,638.78 416.841,641.596L416.841,643.837C416.841,646.653 419.128,648.94 421.945,648.94L429.686,648.94C432.503,648.94 434.789,646.653 434.789,643.837L434.789,641.596Z" style="fill:#beb6b3;"/>
            </g>
            <g transform="matrix(1,0,0,1,-10.7785,82.7707)">
                <path d="M420.135,636.706C420.135,635.398 419.073,634.337 417.765,634.337L387.046,634.337C385.739,634.337 384.677,635.398 384.677,636.706L384.677,665.813C384.677,667.121 385.739,668.182 387.046,668.182L417.765,668.182C419.073,668.182 420.135,667.121 420.135,665.813L420.135,636.706Z" style="fill:#343434;"/>
            </g>
            <g transform="matrix(5.45068,0,0,5.45068,103.815,490.165)">
                <path d="M49.673,41.768L55.937,47.709C56.011,47.631 56.056,47.526 56.056,47.41L56.056,42.07C56.056,41.83 55.861,41.636 55.621,41.636L49.985,41.636C49.863,41.636 49.752,41.687 49.673,41.768Z" style="fill:#7c7c7c;fill-opacity:0.25;"/>
            </g>
        </g>
        <g transform="matrix(0.183463,0,0,0.183463,-56.4631,-81.1773)">
            <g transform="matrix(1,0,0,1,-12.7785,83.4584)">
                <path d="M434.789,641.596C434.789,638.78 432.503,636.493 429.686,636.493L421.945,636.493C419.128,636.493 416.841,638.78 416.841,641.596L416.841,643.837C416.841,646.653 419.128,648.94 421.945,648.94L429.686,648.94C432.503,648.94 434.789,646.653 434.789,643.837L434.789,641.596Z" style="fill:#beb6b3;"/>
            </g>
            <g transform="matrix(1,0,0,1,-12.7785,99.4465)">
                <path d="M434.789,641.596C434.789,638.78 432.503,636.493 429.686,636.493L421.945,636.493C419.128,636.493 416.841,638.78 416.841,641.596L416.841,643.837C416.841,646.653 419.128,648.94 421.945,648.94L429.686,648.94C432.503,648.94 434.789,646.653 434.789,643.837L434.789,641.596Z" style="fill:#beb6b3;"/>
            </g>
            <g transform="matrix(1,0,0,1,-55.2386,83.4584)">
                <path d="M434.789,641.596C434.789,638.78 432.503,636.493 429.686,636.493L421.945,636.493C419.128,636.493 416.841,638.78 416.841,641.596L416.841,643.837C416.841,646.653 419.128,648.94 421.945,648.94L429.686,648.94C432.503,648.94 434.789,646.653 434.789,643.837L434.789,641.596Z" style="fill:#beb6b3;"/>
            </g>
            <g transform="matrix(1,0,0,1,-55.2386,99.4465)">
                <path d="M434.789,641.596C434.789,638.78 432.503,636.493 429.686,636.493L421.945,636.493C419.128,636.493 416.841,638.78 416.841,641.596L416.841,643.837C416.841,646.653 419.128,648.94 421.945,648.94L429.686,648.94C432.503,648.94 434.789,646.653 434.789,643.837L434.789,641.596Z" style="fill:#beb6b3;"/>
            </g>
            <g transform="matrix(1,0,0,1,-10.7785,82.7707)">
                <path d="M420.135,636.706C420.135,635.398 419.073,634.337 417.765,634.337L387.046,634.337C385.739,634.337 384.677,635.398 384.677,636.706L384.677,665.813C384.677,667.121 385.739,668.182 387.046,668.182L417.765,668.182C419.073,668.182 420.135,667.121 420.135,665.813L420.135,636.706Z" style="fill:#343434;"/>
            </g>
            <g transform="matrix(5.45068,0,0,5.45068,103.815,490.165)">
                <path d="M49.673,41.768L55.937,47.709C56.011,47.631 56.056,47.526 56.056,47.41L56.056,42.07C56.056,41.83 55.861,41.636 55.621,41.636L49.985,41.636C49.863,41.636 49.752,41.687 49.673,41.768Z" style="fill:#7c7c7c;fill-opacity:0.25;"/>
            </g>
        </g>
        <g>
            <g transform="matrix(1.629,0,0,1,-71.6797,5.48036)">
                <path d="M71.343,12.001C71.343,11.428 71.058,10.964 70.706,10.964L57.507,10.964C57.156,10.964 56.871,11.428 56.871,12.001L56.871,27.207C56.871,27.779 57.156,28.244 57.507,28.244L70.706,28.244C71.058,28.244 71.343,27.779 71.343,27.207L71.343,12.001Z" style="fill:#1f1f1f;"/>
            </g>
            <g transform="matrix(1.629,0,0,1,-71.6797,3.79722)">
                <path d="M71.343,12.001C71.343,11.428 71.058,10.964 70.706,10.964L57.507,10.964C57.156,10.964 56.871,11.428 56.871,12.001L56.871,27.207C56.871,27.779 57.156,28.244 57.507,28.244L70.706,28.244C71.058,28.244 71.343,27.779 71.343,27.207L71.343,12.001Z" style="fill:#343434;"/>
            </g>
            <g transform="matrix(0.565283,0,0,1.82354,-109.071,-46.3853)">
                <rect x="233.5" y="34.631" width="18.171" height="1.665" style="fill:#4d4d4d;"/>
            </g>
            <g transform="matrix(0.910297,0,0,0.911768,-189.632,-10.5488)">
                <rect x="233.5" y="34.631" width="18.171" height="1.665" style="fill:#4d4d4d;"/>
            </g>
            <g transform="matrix(0.910297,0,0,0.911768,-189.632,-7.64921)">
                <rect x="233.5" y="34.631" width="18.171" height="1.665" style="fill:#4d4d4d;"/>
            </g>
            <g transform="matrix(1,0,0,1,0,8.75)">
                <path d="M21.312,6.273L44.262,22.959C44.433,22.774 44.538,22.526 44.538,22.254L44.538,7.048C44.538,6.476 44.074,6.011 43.501,6.011L22,6.011C21.736,6.011 21.495,6.11 21.312,6.273Z" style="fill:#7c7c7c;fill-opacity:0.25;"/>
            </g>
        </g>
        <g transform="matrix(1,0,0,1,209.758,20.6347)">
            <g transform="matrix(1.629,0,0,1,-71.6797,5.48036)">
                <path d="M71.343,12.001C71.343,11.428 71.058,10.964 70.706,10.964L57.507,10.964C57.156,10.964 56.871,11.428 56.871,12.001L56.871,27.207C56.871,27.779 57.156,28.244 57.507,28.244L70.706,28.244C71.058,28.244 71.343,27.779 71.343,27.207L71.343,12.001Z" style="fill:#1f1f1f;"/>
            </g>
            <g transform="matrix(1.629,0,0,1,-71.6797,3.79722)">
                <path d="M71.343,12.001C71.343,11.428 71.058,10.964 70.706,10.964L57.507,10.964C57.156,10.964 56.871,11.428 56.871,12.001L56.871,27.207C56.871,27.779 57.156,28.244 57.507,28.244L70.706,28.244C71.058,28.244 71.343,27.779 71.343,27.207L71.343,12.001Z" style="fill:#343434;"/>
            </g>
            <g transform="matrix(1,0,0,1,-209.758,-11.8847)">
                <ellipse cx="239.133" cy="30.957" rx="5.633" ry="2.351" style="fill:#4d4d4d;"/>
            </g>
            <g transform="matrix(1,0,0,1,-209.758,-11.8847)">
                <rect x="233.5" y="34.631" width="18.171" height="1.665" style="fill:#4d4d4d;"/>
            </g>
            <g transform="matrix(1,0,0,1,-209.758,-9.2202)">
                <rect x="233.5" y="34.631" width="18.171" height="1.665" style="fill:#4d4d4d;"/>
            </g>
            <g transform="matrix(0.565283,0,0,1,-108.252,-6.5244)">
                <rect x="233.5" y="34.631" width="18.171" height="1.665" style="fill:#4d4d4d;"/>
            </g>
            <g transform="matrix(1,0,0,1,-209.758,-11.8847)">
                <path d="M231.034,26.941L253.997,43.617C254.182,43.43 254.297,43.173 254.297,42.889L254.297,27.682C254.297,27.11 253.832,26.646 253.26,26.646L231.759,26.646C231.477,26.646 231.221,26.758 231.034,26.941Z" style="fill:#7c7c7c;fill-opacity:0.25;"/>
            </g>
        </g>
        <g>
            <g transform="matrix(1,0,0,1,0,11.0615)">
                <path d="M200.183,12.605C199.992,12.434 199.745,12.339 199.488,12.339L66.578,12.339C66.003,12.339 65.536,12.806 65.536,13.381L65.536,47.426C65.536,48.001 66.003,48.467 66.578,48.467L210.805,48.467C211.38,48.467 211.847,48.001 211.847,47.426L211.847,23.503C211.847,23.206 211.72,22.924 211.5,22.726L200.183,12.605Z" style="fill:#1f1f1f;"/>
            </g>
            <g transform="matrix(1,0,0,1,0,8.75)">
                <path d="M200.183,12.605C199.992,12.434 199.745,12.339 199.488,12.339L66.578,12.339C66.003,12.339 65.536,12.806 65.536,13.381L65.536,47.426C65.536,48.001 66.003,48.467 66.578,48.467L210.805,48.467C211.38,48.467 211.847,48.001 211.847,47.426L211.847,23.503C211.847,23.206 211.72,22.924 211.5,22.726L200.183,12.605Z" style="fill:#343434;"/>
            </g>
            <g transform="matrix(1,0,0,1,0,8.75)">
                <path d="M198.524,14.153C198.333,13.982 198.086,13.887 197.83,13.887L68.404,13.887C67.828,13.887 67.362,14.354 67.362,14.929L67.362,45.953C67.362,46.528 67.828,46.994 68.404,46.994L209.147,46.994C209.722,46.994 210.188,46.528 210.188,45.953L210.188,25.051C210.188,24.754 210.062,24.472 209.841,24.274L198.524,14.153Z" style="fill:#3c3c3c;"/>
            </g>
        </g>
    </g>
</svg>
